<svg width="22" height="22" viewBox="0 0 22 22" fill="none" xmlns="http://www.w3.org/2000/svg">
<path d="M11 2C6.02976 2 2.00001 6.02975 2.00001 11C2.00001 12.6237 2.42901 14.1447 3.17976 15.4587C3.22938 15.5455 3.26118 15.6412 3.27329 15.7404C3.28539 15.8396 3.27756 15.9401 3.25026 16.0363L2.17101 19.8305L5.96676 18.7505C6.06286 18.7232 6.16345 18.7154 6.26262 18.7275C6.36179 18.7396 6.45755 18.7714 6.54426 18.821C7.9012 19.596 9.43733 20.0025 11 20C15.971 20 20 15.9703 20 11C20 6.02975 15.971 2 11 2ZM0.500009 11C0.500009 5.201 5.20101 0.5 11 0.5C16.799 0.5 21.5 5.201 21.5 11C21.5 16.799 16.799 21.5 11 21.5C9.22401 21.5 7.54851 21.0583 6.08001 20.2782L1.93401 21.4573C1.74132 21.5119 1.53754 21.5141 1.34372 21.4636C1.1499 21.4131 0.97307 21.3118 0.831488 21.1702C0.689906 21.0285 0.588708 20.8516 0.538346 20.6578C0.487984 20.4639 0.490284 20.2602 0.545009 20.0675L1.72401 15.9222C0.918163 14.4068 0.497792 12.7163 0.500009 11ZM6.50001 8.75C6.50001 8.55109 6.57903 8.36032 6.71968 8.21967C6.86033 8.07902 7.0511 8 7.25001 8H14.75C14.9489 8 15.1397 8.07902 15.2803 8.21967C15.421 8.36032 15.5 8.55109 15.5 8.75C15.5 8.94891 15.421 9.13968 15.2803 9.28033C15.1397 9.42098 14.9489 9.5 14.75 9.5H7.25001C7.0511 9.5 6.86033 9.42098 6.71968 9.28033C6.57903 9.13968 6.50001 8.94891 6.50001 8.75ZM7.25001 12.5C7.0511 12.5 6.86033 12.579 6.71968 12.7197C6.57903 12.8603 6.50001 13.0511 6.50001 13.25C6.50001 13.4489 6.57903 13.6397 6.71968 13.7803C6.86033 13.921 7.0511 14 7.25001 14H11.75C11.9489 14 12.1397 13.921 12.2803 13.7803C12.421 13.6397 12.5 13.4489 12.5 13.25C12.5 13.0511 12.421 12.8603 12.2803 12.7197C12.1397 12.579 11.9489 12.5 11.75 12.5H7.25001Z" fill="white"/>
</svg>
