<svg width="30" height="192" viewBox="0 0 30 192" fill="none" xmlns="http://www.w3.org/2000/svg">
<g clip-path="url(#clip0_10_18)">
<path d="M15.52 0.192053C15.3751 0.0681091 15.1907 0 15 0C14.8093 0 14.6249 0.0681091 14.48 0.192053L3 10.0321V21.6001C3 22.2366 3.25286 22.847 3.70294 23.2971C4.15303 23.7472 4.76348 24.0001 5.4 24.0001H11.8C12.0122 24.0001 12.2157 23.9158 12.3657 23.7657C12.5157 23.6157 12.6 23.4122 12.6 23.2001V18.4001C12.6 17.7635 12.8529 17.1531 13.3029 16.703C13.753 16.2529 14.3635 16.0001 15 16.0001C15.6365 16.0001 16.247 16.2529 16.6971 16.703C17.1471 17.1531 17.4 17.7635 17.4 18.4001V23.2001C17.4 23.4122 17.4843 23.6157 17.6343 23.7657C17.7843 23.9158 17.9878 24.0001 18.2 24.0001H24.6C25.2365 24.0001 25.847 23.7472 26.2971 23.2971C26.7471 22.847 27 22.2366 27 21.6001V10.0321L15.52 0.192053Z" fill="#E2E2E2"/>
</g>
<path d="M15 59C10.0298 59 6.00001 63.0297 6.00001 68C6.00001 69.6237 6.42901 71.1447 7.17976 72.4587C7.22938 72.5455 7.26118 72.6412 7.27329 72.7404C7.28539 72.8396 7.27756 72.9401 7.25026 73.0363L6.17101 76.8305L9.96676 75.7505C10.0629 75.7232 10.1635 75.7154 10.2626 75.7275C10.3618 75.7396 10.4575 75.7714 10.5443 75.821C11.9012 76.596 13.4373 77.0025 15 77C19.971 77 24 72.9703 24 68C24 63.0297 19.971 59 15 59ZM4.50001 68C4.50001 62.201 9.20101 57.5 15 57.5C20.799 57.5 25.5 62.201 25.5 68C25.5 73.799 20.799 78.5 15 78.5C13.224 78.5 11.5485 78.0583 10.08 77.2782L5.93401 78.4573C5.74132 78.5119 5.53754 78.5141 5.34372 78.4636C5.1499 78.4131 4.97307 78.3118 4.83149 78.1702C4.68991 78.0285 4.58871 77.8516 4.53835 77.6578C4.48798 77.4639 4.49028 77.2602 4.54501 77.0675L5.72401 72.9222C4.91816 71.4068 4.49779 69.7163 4.50001 68ZM10.5 65.75C10.5 65.5511 10.579 65.3603 10.7197 65.2197C10.8603 65.079 11.0511 65 11.25 65H18.75C18.9489 65 19.1397 65.079 19.2803 65.2197C19.421 65.3603 19.5 65.5511 19.5 65.75C19.5 65.9489 19.421 66.1397 19.2803 66.2803C19.1397 66.421 18.9489 66.5 18.75 66.5H11.25C11.0511 66.5 10.8603 66.421 10.7197 66.2803C10.579 66.1397 10.5 65.9489 10.5 65.75ZM11.25 69.5C11.0511 69.5 10.8603 69.579 10.7197 69.7197C10.579 69.8603 10.5 70.0511 10.5 70.25C10.5 70.4489 10.579 70.6397 10.7197 70.7803C10.8603 70.921 11.0511 71 11.25 71H15.75C15.9489 71 16.1397 70.921 16.2803 70.7803C16.421 70.6397 16.5 70.4489 16.5 70.25C16.5 70.0511 16.421 69.8603 16.2803 69.7197C16.1397 69.579 15.9489 69.5 15.75 69.5H11.25Z" fill="white"/>
<path fill-rule="evenodd" clip-rule="evenodd" d="M15 114C20.523 114 25 118.477 25 124C25.0035 126.308 24.2053 128.545 22.742 130.33L22.762 130.352L22.63 130.464C21.6921 131.573 20.5235 132.464 19.2056 133.075C17.8878 133.686 16.4525 134.001 15 134C12.05 134 9.40001 132.723 7.57001 130.693L7.37001 130.463L7.23801 130.353L7.25801 130.329C5.79491 128.545 4.9968 126.308 5.00001 124C5.00001 118.477 9.47701 114 15 114ZM15 129C13.14 129 11.459 129.592 10.207 130.406C11.5896 131.443 13.2718 132.002 15 132C16.7282 132.002 18.4104 131.443 19.793 130.406C18.3623 129.489 16.6991 129.002 15 129ZM15 116C13.4945 116 12.0196 116.425 10.7447 117.225C9.46987 118.026 8.44682 119.17 7.79317 120.527C7.13952 121.883 6.88181 123.396 7.04966 124.892C7.21751 126.388 7.8041 127.806 8.74201 128.984C10.363 127.821 12.575 127 15 127C17.425 127 19.637 127.821 21.258 128.984C22.1959 127.806 22.7825 126.388 22.9504 124.892C23.1182 123.396 22.8605 121.883 22.2069 120.527C21.5532 119.17 20.5302 118.026 19.2553 117.225C17.9804 116.425 16.5055 116 15 116ZM15 118C16.0609 118 17.0783 118.421 17.8284 119.172C18.5786 119.922 19 120.939 19 122C19 123.061 18.5786 124.078 17.8284 124.828C17.0783 125.579 16.0609 126 15 126C13.9391 126 12.9217 125.579 12.1716 124.828C11.4214 124.078 11 123.061 11 122C11 120.939 11.4214 119.922 12.1716 119.172C12.9217 118.421 13.9391 118 15 118ZM15 120C14.4696 120 13.9609 120.211 13.5858 120.586C13.2107 120.961 13 121.47 13 122C13 122.53 13.2107 123.039 13.5858 123.414C13.9609 123.789 14.4696 124 15 124C15.5304 124 16.0392 123.789 16.4142 123.414C16.7893 123.039 17 122.53 17 122C17 121.47 16.7893 120.961 16.4142 120.586C16.0392 120.211 15.5304 120 15 120Z" fill="white"/>
<path d="M5.2933 176.86C5.73664 175.491 6.46458 174.231 7.4293 173.164C7.5091 173.075 7.6133 173.013 7.72868 172.984C7.84405 172.955 7.9654 172.961 8.0773 173.002L10.3789 173.825C10.5428 173.883 10.7174 173.905 10.8906 173.89C11.0639 173.874 11.2317 173.821 11.3824 173.734C11.5331 173.647 11.663 173.528 11.7633 173.386C11.8635 173.244 11.9316 173.082 11.9629 172.91L12.4021 170.503C12.4233 170.386 12.4789 170.278 12.5618 170.192C12.6447 170.107 12.7512 170.048 12.8677 170.023C14.2734 169.723 15.7268 169.723 17.1325 170.023C17.249 170.048 17.3555 170.107 17.4384 170.192C17.5213 170.278 17.5769 170.386 17.5981 170.503L18.0373 172.91C18.0686 173.082 18.1367 173.244 18.2369 173.386C18.3372 173.528 18.4671 173.647 18.6178 173.734C18.7685 173.821 18.9363 173.874 19.1096 173.89C19.2828 173.905 19.4575 173.883 19.6213 173.825L21.9241 173.002C22.0361 172.961 22.1575 172.956 22.2729 172.985C22.3883 173.014 22.4924 173.076 22.5721 173.165C23.5367 174.232 24.2646 175.491 24.7081 176.86C24.7445 176.973 24.7466 177.094 24.7139 177.208C24.6812 177.323 24.6153 177.425 24.5245 177.502L22.6585 179.086C22.5259 179.198 22.4195 179.338 22.3464 179.496C22.2734 179.654 22.2356 179.826 22.2356 180C22.2356 180.174 22.2734 180.346 22.3464 180.504C22.4195 180.662 22.5259 180.802 22.6585 180.914L24.5245 182.498C24.6151 182.575 24.6807 182.677 24.7132 182.792C24.7457 182.906 24.7435 183.027 24.7069 183.14C24.2636 184.509 23.5356 185.769 22.5709 186.836C22.4911 186.925 22.3869 186.987 22.2715 187.016C22.1562 187.045 22.0348 187.039 21.9229 186.998L19.6213 186.175C19.4575 186.117 19.2828 186.094 19.1096 186.11C18.9363 186.126 18.7685 186.179 18.6178 186.266C18.4671 186.353 18.3372 186.472 18.2369 186.614C18.1367 186.756 18.0686 186.918 18.0373 187.09L17.5981 189.498C17.5767 189.615 17.521 189.723 17.4381 189.808C17.3552 189.893 17.2488 189.952 17.1325 189.977C15.7268 190.277 14.2734 190.277 12.8677 189.977C12.7512 189.952 12.6447 189.893 12.5618 189.808C12.4789 189.722 12.4233 189.614 12.4021 189.497L11.9629 187.09C11.9316 186.918 11.8635 186.756 11.7633 186.614C11.663 186.472 11.5331 186.353 11.3824 186.266C11.2317 186.179 11.0639 186.126 10.8906 186.11C10.7174 186.094 10.5428 186.117 10.3789 186.175L8.0773 186.998C7.96528 187.038 7.84387 187.044 7.72848 187.015C7.6131 186.986 7.50896 186.924 7.4293 186.835C6.46473 185.768 5.7368 184.509 5.2933 183.14C5.25672 183.027 5.25453 182.906 5.287 182.792C5.31947 182.677 5.38515 182.575 5.4757 182.498L7.3417 180.914C7.47426 180.802 7.58074 180.662 7.65376 180.504C7.72679 180.346 7.76461 180.174 7.76461 180C7.76461 179.826 7.72679 179.654 7.65376 179.496C7.58074 179.338 7.47426 179.198 7.3417 179.086L5.4757 177.502C5.38515 177.425 5.31947 177.323 5.287 177.208C5.25453 177.094 5.25672 176.973 5.2933 176.86ZM6.5653 176.852L8.1181 178.17C8.38363 178.395 8.59695 178.676 8.74325 178.992C8.88955 179.308 8.96533 179.652 8.96533 180C8.96533 180.348 8.88955 180.692 8.74325 181.008C8.59695 181.324 8.38363 181.605 8.1181 181.83L6.5665 183.148C6.9169 184.086 7.4221 184.96 8.0593 185.73L9.9745 185.046C10.0985 185.002 10.2245 184.968 10.3525 184.944C10.9787 184.83 11.6245 184.969 12.148 185.331C12.6714 185.693 13.0296 186.249 13.1437 186.875L13.5085 188.878C14.4962 189.041 15.504 189.041 16.4917 188.878L16.8565 186.874C16.9186 186.531 17.0547 186.206 17.2551 185.921C17.4556 185.636 17.7157 185.399 18.0173 185.225C18.3189 185.051 18.6548 184.944 19.0017 184.913C19.3485 184.882 19.698 184.927 20.0257 185.045L21.9409 185.73C22.5791 184.958 23.084 184.086 23.4349 183.148L21.8821 181.83C21.6162 181.605 21.4026 181.325 21.256 181.009C21.1095 180.693 21.0336 180.348 21.0336 180C21.0336 179.652 21.1095 179.307 21.256 178.991C21.4026 178.675 21.6162 178.395 21.8821 178.17L23.4349 176.852C23.084 175.914 22.5791 175.042 21.9409 174.27L20.0257 174.954C19.698 175.071 19.3488 175.115 19.0022 175.084C18.6557 175.053 18.3201 174.946 18.0187 174.772C17.7174 174.598 17.4574 174.361 17.257 174.076C17.0565 173.792 16.9203 173.467 16.8577 173.125L16.4917 171.122C15.504 170.959 14.4962 170.959 13.5085 171.122L13.1437 173.125C13.0813 173.468 12.9452 173.792 12.7448 174.077C12.5443 174.361 12.2844 174.599 11.9831 174.773C11.6817 174.947 11.346 175.054 10.9994 175.085C10.6528 175.117 10.3035 175.072 9.9757 174.955L8.0593 174.27C7.42153 175.042 6.9158 175.915 6.5653 176.852ZM12.0025 180C12.0025 179.204 12.3186 178.441 12.8812 177.879C13.4438 177.316 14.2069 177 15.0025 177C15.7982 177 16.5612 177.316 17.1238 177.879C17.6864 178.441 18.0025 179.204 18.0025 180C18.0025 180.796 17.6864 181.559 17.1238 182.121C16.5612 182.684 15.7982 183 15.0025 183C14.2069 183 13.4438 182.684 12.8812 182.121C12.3186 181.559 12.0025 180.796 12.0025 180ZM13.2025 180C13.2025 180.477 13.3921 180.935 13.7297 181.273C14.0673 181.61 14.5251 181.8 15.0025 181.8C15.4799 181.8 15.9377 181.61 16.2753 181.273C16.6129 180.935 16.8025 180.477 16.8025 180C16.8025 179.523 16.6129 179.065 16.2753 178.727C15.9377 178.39 15.4799 178.2 15.0025 178.2C14.5251 178.2 14.0673 178.39 13.7297 178.727C13.3921 179.065 13.2025 179.523 13.2025 180Z" fill="white"/>
<defs>
<clipPath id="clip0_10_18">
<rect width="24" height="24" fill="white" transform="translate(3)"/>
</clipPath>
</defs>
</svg>
