<svg width="174" height="174" viewBox="0 0 174 174" fill="none" xmlns="http://www.w3.org/2000/svg">
<path d="M128.899 102.533C130.058 101.445 131.223 100.299 130.935 98.7631C130.786 97.9427 130.321 97.2135 129.64 96.7327C128.959 96.2519 128.116 96.0579 127.294 96.1925L122.047 75.4466C122.405 75.8582 122.451 76.0087 122.679 76.0023C122.736 76.0008 122.791 75.9854 122.84 75.9575C122.889 75.9296 122.931 75.8901 122.961 75.8424C124.241 73.9444 125.379 71.9553 126.369 69.8912C128.187 66.8027 124.929 65.2251 123.244 68.2929C123.088 67.7883 122.827 67.3223 122.479 66.9252C122.13 66.5281 121.702 66.209 121.222 65.9884C120.715 65.8253 120.168 65.8409 119.671 66.0325L106.205 12.8239C105.618 10.5404 104.152 8.58162 102.126 7.37494C100.101 6.16826 97.6804 5.8116 95.3929 6.38278C63.4398 14.4277 42.981 19.3874 40.9212 19.9268C36.0566 21.2123 32.8039 31.1239 34.0345 35.8381L45.406 80.6538C45.3442 80.6055 45.2674 80.5803 45.1889 80.5825C45.1104 80.5848 45.0352 80.6143 44.9762 80.666C37.1351 86.7433 31.8624 96.223 29.4986 105.654C25.8729 119.954 29.2992 136.028 34.8403 149.637C36.0028 152.676 37.6409 155.511 39.6933 158.036C39.903 158.291 40.3154 157.959 40.1307 157.694C36.5432 152.566 34.865 148.135 32.8445 141.747C29.2414 130.732 27.5559 118.919 29.9063 107.532C33.895 89.0877 45.1193 81.843 45.5394 81.1899L49.6645 97.5136C46.4225 101.287 43.8226 105.567 41.9687 110.183C41.8188 110.55 42.1521 110.701 42.3347 110.3C45.2956 103.711 49.6362 97.8338 55.0634 93.0664C57.9864 90.5455 61.1451 88.0093 64.818 87.2385C66.329 86.9101 67.9021 87.0145 69.3565 87.5397C75.1715 89.7195 73.4774 96.0016 70.4945 101.46C63.4703 114.313 62.7829 115.648 61.8353 118.518C59.9336 124.916 62.1708 130.319 63.3624 136.628C66.1411 150.991 60.7154 155.979 59.6158 157.655C59.1796 158.334 59.7142 158.445 59.9199 158.262C61.5851 156.751 62.8598 154.86 63.6351 152.749L65.603 160.547C65.8909 161.692 66.402 162.768 67.1068 163.715C67.8116 164.662 68.6964 165.461 69.7103 166.065C70.7243 166.669 71.8476 167.068 73.0158 167.237C74.184 167.407 75.3741 167.344 76.518 167.053L129.744 153.595C134.173 152.44 139.278 144.753 137.977 139.062C137.908 137.833 138.583 140.8 128.899 102.533ZM52.6762 94.2562L36.5218 30.453C36.0252 28.5047 36.2794 26.4409 37.2339 24.6713C38.1884 22.9018 39.7734 21.5558 41.6743 20.9008C41.9915 20.7821 95.0126 7.24559 95.5737 7.1031C96.6094 6.84138 97.6865 6.7868 98.7434 6.94248C99.8002 7.09817 100.816 7.46106 101.732 8.01032C102.648 8.55959 103.447 9.2844 104.082 10.1432C104.718 11.0019 105.177 11.9777 105.434 13.0145L118.958 66.4746C118.634 66.7521 118.391 67.1115 118.254 67.5153C117.323 69.7941 119.33 72.1496 120.887 74.0793L126.522 96.3663C125.982 96.5554 125.487 96.857 125.071 97.2511C124.955 95.2383 124.077 93.4411 122.186 93.3768L120.475 86.5926C121.411 84.204 121.802 83.4421 122.078 81.57C122.159 81.055 122.115 80.5282 121.95 80.0337C121.785 79.5393 121.504 79.0917 121.13 78.7286C120.755 78.3656 120.3 78.0977 119.801 77.9475C119.301 77.7973 118.773 77.7693 118.261 77.8656L103.05 17.5616C102.528 15.5571 101.235 13.8401 99.4525 12.7847C97.6702 11.7293 95.543 11.4211 93.5345 11.9272L46.9321 23.6532C44.9287 24.177 43.2131 25.4704 42.1581 27.2521C41.103 29.0339 40.7938 31.16 41.2976 33.1684L56.0192 91.3775C54.7882 92.2897 53.7186 93.2396 52.6762 94.2562ZM67.2721 86.3252C63.2309 86.0098 59.7403 88.4457 56.5862 90.8468L41.9421 32.9898C41.4881 31.1719 41.773 29.248 42.7344 27.6397C43.6958 26.0313 45.2554 24.8694 47.0716 24.4084C97.5324 11.6111 94.0888 12.4345 95.2264 12.3937C96.8395 12.3452 98.4205 12.8504 99.7067 13.8252C100.993 14.8 101.907 16.1856 102.296 17.7518L117.507 78.0557C115.282 78.7179 114.071 81.2071 113.833 83.2216C112.282 81.1989 109.484 80.3928 107.906 82.4453C107.552 83.0887 107.396 83.8218 107.455 84.5536C107.515 85.2853 107.789 85.9833 108.242 86.5607C108.899 87.4375 109.622 88.263 110.404 89.03L105.999 90.4374C105.562 86.0465 102.994 78.2069 98.1668 71.9077C97.3263 70.6908 96.2395 69.6641 94.9768 68.8941C96.4493 67.4564 97.6706 65.7822 98.5898 63.9409C98.6271 63.8718 98.6404 63.7923 98.6276 63.7149C98.6148 63.6375 98.5767 63.5665 98.5192 63.5131C98.4617 63.4597 98.388 63.4269 98.3099 63.4199C98.2317 63.4129 98.1534 63.432 98.0873 63.4743C97.9052 63.5976 97.7061 63.7129 97.5151 63.8196C97.761 63.4218 97.9477 62.9902 98.0692 62.5385C98.0804 62.4792 98.0759 62.418 98.0562 62.361C98.0365 62.304 98.0021 62.2531 97.9567 62.2135C97.9112 62.1739 97.8561 62.1468 97.7969 62.135C97.7378 62.1233 97.6765 62.1272 97.6193 62.1464C96.7863 62.5159 96.0613 61.6424 95.8168 60.7551C95.1098 58.1433 95.7104 57.0128 94.0937 53.8532C95.3378 51.6466 96.0748 49.1907 96.2513 46.6637C96.3871 46.1034 96.3438 45.5146 96.1275 44.9801C95.9795 44.7445 95.7588 44.5635 95.4988 44.4643C95.2388 44.3652 94.9536 44.3533 94.6863 44.4306C92.672 44.8454 90.7306 45.5573 88.9257 46.543C89.1348 44.4029 89.4063 42.379 89.4162 40.3542C90.8311 39.6813 94.7664 37.7558 93.8354 34.3827C93.355 32.6164 90.864 30.4518 88.9583 31.0712C89.0301 29.9456 88.712 28.8296 88.0575 27.911C87.403 26.9924 86.4521 26.3273 85.3647 26.0276C84.1428 25.7929 82.8774 25.97 81.7668 26.5312C80.6563 27.0925 79.7632 28.0062 79.2274 29.1292C78.3419 28.1675 77.2801 27.3844 76.0997 26.8224C75.2114 26.4749 74.2485 26.3622 73.3039 26.4952C72.3593 26.6283 71.465 27.0027 70.7073 27.5822C69.9496 28.1617 69.3541 28.9267 68.9783 29.8035C68.6025 30.6802 68.4591 31.639 68.5619 32.5874C65.7879 32.042 62.7557 33.984 62.9923 36.9635C63.0335 37.6437 63.2434 38.3029 63.603 38.8817C63.9626 39.4606 64.4605 39.9408 65.052 40.2792C65.8467 40.5842 66.6698 40.8095 67.509 40.9517C67.9766 41.0972 68.4025 41.3526 68.7513 41.6963C69.1001 42.0401 69.3615 42.4623 69.5138 42.9277C70.4343 45.2458 71.1788 47.63 71.7411 50.0599C71.7435 50.1442 71.8796 49.8873 71.1522 50.7094C70.5459 50.1555 69.8909 49.6574 69.195 49.2213C68.4274 48.6273 67.7291 48.0988 67.0146 47.5961C62.4229 44.2343 62.4595 51.1589 64.5576 55.528C65.233 56.9995 66.1247 58.3617 67.2032 59.5693C67.1596 59.8152 67.133 60.069 67.1063 60.3144C66.7318 60.1986 66.279 60.8863 66.197 61.2682C66.1824 61.3197 66.1803 61.374 66.1908 61.4265C66.2013 61.4791 66.2242 61.5283 66.2575 61.5703C66.2909 61.6122 66.3337 61.6455 66.3825 61.6676C66.4313 61.6897 66.4847 61.6998 66.5382 61.6972L67.0102 61.6837C66.9287 62.8661 66.9229 64.0525 66.9931 65.2356C67.0895 66.5488 67.1184 69.6439 65.8404 69.7899C65.7819 69.7899 65.7249 69.8077 65.6769 69.841C65.6289 69.8743 65.5923 69.9214 65.5718 69.9761C65.5513 70.0309 65.5481 70.0905 65.5624 70.1471C65.5768 70.2037 65.6081 70.2546 65.6522 70.2929C65.9929 70.567 66.3648 70.8 66.7601 70.9869L65.9847 71.0089C65.9323 71.0092 65.881 71.0243 65.8368 71.0525C65.7926 71.0806 65.7572 71.1206 65.7348 71.168C65.7123 71.2153 65.7037 71.2681 65.7099 71.3201C65.7161 71.3722 65.7369 71.4214 65.7698 71.4621C68.219 74.2353 71.7785 75.1127 75.549 75.4019C75.2882 76.9109 74.6902 79.3152 73.6805 80.5923C73.3144 80.983 72.8805 81.304 72.3999 81.5398C70.1481 82.1521 69.1242 85.0072 70.3362 87.2841C69.3949 86.7496 68.3502 86.4226 67.2721 86.3252ZM102.984 102.493C101.525 105.175 100.255 105.616 97.2911 106.088L78.8227 109.254C76.7767 109.683 69.4242 110.989 69.9495 108.991C70.4975 107.5 73.7189 103.308 74.5405 102.239C74.1706 105.843 75.6536 107.269 79.1006 106.563C97.5481 102.665 96.7208 103.237 97.065 102.586C97.76 102.701 98.255 102.012 98.7184 101.4C99.4896 100.238 100.188 99.0292 100.809 97.7805C101.363 96.8059 101.722 95.7327 101.866 94.6209C103.606 94.2314 105.395 94.115 107.171 94.276C107.241 94.3333 107.297 94.4059 107.334 94.4883C107.372 94.5706 107.39 94.6604 107.387 94.7507C107.222 95.2025 107.738 93.7454 102.993 102.493L102.984 102.493ZM107.694 95.7711C107.944 97.0506 107.679 98.3771 106.956 99.4616L104.235 104.373C103.671 105.663 102.924 106.866 102.017 107.945C101.416 108.464 100.666 108.781 99.875 108.849C99.1867 108.97 75.4096 112.632 75.4096 112.632C72.189 113.289 70.7024 113.222 69.9584 110.198C72.1184 111.401 77.7187 109.884 97.2009 106.774C100.182 106.301 101.942 105.906 103.51 102.892L107.694 95.7711ZM81.2575 93.4184C81.4419 93.5381 81.6128 93.6775 81.7671 93.8341C81.3149 94.2658 80.9231 94.7564 80.6022 95.2929C80.5984 95.3151 80.5991 95.3379 80.6041 95.3599C80.6091 95.382 80.6184 95.4028 80.6314 95.4212C80.6445 95.4396 80.6611 95.4553 80.6802 95.4673C80.6993 95.4794 80.7206 95.4875 80.7429 95.4913C80.7651 95.4951 80.7879 95.4945 80.8099 95.4895C80.832 95.4845 80.8528 95.4752 80.8712 95.4621C80.8896 95.4491 80.9053 95.4325 80.9173 95.4134C80.9294 95.3943 80.9375 95.373 80.9413 95.3507C81.2777 94.9338 81.6507 94.5477 82.0558 94.1971C82.2424 94.4841 82.4088 94.7838 82.5537 95.094C82.4889 95.1886 82.4477 95.2235 82.4494 95.2825C82.4478 95.3103 82.4518 95.3381 82.4611 95.3643C82.4703 95.3905 82.4847 95.4146 82.5033 95.4352C82.5219 95.4559 82.5445 95.4726 82.5696 95.4845C82.5947 95.4964 82.6219 95.5033 82.6497 95.5046C82.8351 95.4993 83.0958 94.8761 84.2875 93.7709C84.3749 93.8781 84.4284 93.9778 84.5717 93.9737C84.6027 93.9741 84.6334 93.968 84.6618 93.9556C84.6902 93.9433 84.7157 93.9251 84.7366 93.9021C84.7575 93.8792 84.7733 93.8522 84.7829 93.8227C84.7925 93.7932 84.7958 93.7621 84.7925 93.7313C84.7737 93.6228 84.7365 93.5183 84.6825 93.4223C84.9545 93.1711 85.2574 92.9556 85.5838 92.7808C85.7717 92.9976 85.9367 93.2332 86.0761 93.4839C85.5707 94.0228 85.1076 94.6 84.6912 95.2104C84.6664 95.2427 84.6541 95.2828 84.6566 95.3235C84.6591 95.3641 84.6762 95.4025 84.7048 95.4315C84.7334 95.4605 84.7715 95.4782 84.8121 95.4813C84.8527 95.4844 84.8931 95.4727 84.9257 95.4483C85.0437 95.445 85.1519 95.096 86.3335 93.9321C86.3834 94.0953 86.4816 94.2396 86.6152 94.3458C85.659 95.4275 84.8545 96.5048 85.301 97.9683C85.3725 98.2166 85.4929 98.448 85.655 98.6491C85.8172 98.8502 86.0179 99.0169 86.2454 99.1394C86.328 99.5154 86.5536 99.8445 86.8745 100.057C87.1953 100.27 87.5863 100.35 87.9649 100.28C88.4677 100.198 88.9462 100.006 89.3661 99.717C90.4309 100.379 91.3626 99.3229 91.9854 98.6809C92.7957 97.8231 93.526 96.8932 94.1672 95.9026C94.5714 95.2838 94.4324 95.4396 94.5258 95.4622C94.7637 95.5229 94.8279 95.1078 95.6608 94.1393C95.7729 94.3492 95.9117 94.5438 96.0737 94.7181C96.1029 94.7631 96.1489 94.7947 96.2014 94.8058C96.2539 94.817 96.3087 94.8068 96.3538 94.7776C96.3988 94.7483 96.4304 94.7024 96.4415 94.6499C96.4527 94.5974 96.4425 94.5425 96.4133 94.4975C96.2955 94.2445 96.15 94.0054 95.9797 93.7844C96.2447 93.4653 96.5417 93.1742 96.866 92.9156C97.0383 93.1551 97.1922 93.4073 97.3261 93.6702C96.7778 94.2591 96.3035 94.9128 95.9137 95.6168C95.8368 95.8805 96.2515 95.9277 96.245 95.7002C96.6281 95.1199 97.0676 94.579 97.5572 94.0854C97.7441 94.4259 97.8803 94.7679 98.1135 94.6601C98.1692 94.627 98.2126 94.5765 98.2368 94.5164C98.261 94.4562 98.2647 94.3898 98.2474 94.3273C98.1875 94.0932 98.1018 93.8665 97.992 93.6513C98.5696 93.1383 99.1851 92.6696 99.8333 92.2492C97.8693 94.7208 96.7361 97.7496 96.5954 100.903C96.6231 101.272 96.6167 101.642 96.5762 102.009L96.5781 102.076C96.3811 102.563 95.589 102.594 95.4799 102.614C95.1343 102.624 96.4276 102.418 79.5435 105.825C77.6227 106.209 75.7951 106.311 75.3956 104.425C74.769 100.782 76.6886 95.9018 81.2575 93.4184ZM81.7737 93.176C82.244 92.9176 82.746 92.7218 83.2671 92.5936C81.6754 93.5752 82.4462 93.6883 81.8074 93.175L81.7737 93.176ZM83.6747 92.987C84.1893 93.5797 84.0203 92.9771 82.8767 94.5871C82.7739 94.3168 82.624 94.0669 82.4339 93.8489C82.8109 93.5121 83.2276 93.2227 83.6747 92.987ZM84.1398 92.7291C84.4712 92.6034 84.7866 92.4387 85.0791 92.2384C85.2614 92.4188 85.2645 92.2332 84.4981 92.8708C84.2753 93.0458 84.4437 93.0326 84.1398 92.7291ZM87.5168 92.8271C87.5972 92.9851 87.5204 92.9535 87.642 93.0766C87.504 93.2661 87.1056 93.792 86.9495 93.9399C86.8964 93.7859 86.8272 93.638 86.743 93.4987C86.8759 93.4274 86.9903 93.2976 87.5506 92.8262L87.5168 92.8271ZM86.4608 93.068C86.3972 92.9514 86.3234 92.8406 86.2405 92.7369C86.1695 92.6534 86.094 92.5739 86.0144 92.4987C86.3004 92.3372 86.5947 92.1909 86.8961 92.0602C87.0141 92.1581 87.1243 92.2649 87.2257 92.3799C86.9707 92.5966 86.7267 92.826 86.4945 93.0671L86.4608 93.068ZM95.6469 93.3552C95.862 92.9493 96.0502 92.5297 96.2101 92.0991L96.5434 92.5452C96.2059 92.7856 95.9095 93.0789 95.6654 93.4137L95.6469 93.3552ZM97.2535 92.6009C97.6177 92.3544 97.6926 92.3185 97.9486 92.1256C98.3195 92.1151 98.6988 92.1043 99.0798 92.1525C97.2486 93.3181 98.144 93.6554 97.2873 92.6L97.2535 92.6009ZM100.456 95.4539C100.404 95.3825 100.327 95.3336 100.24 95.3172C100.153 95.3009 100.064 95.3183 99.9894 95.3659C99.841 95.4883 99.842 95.522 99.4209 96.1413C99.3253 96.0428 99.2302 95.9612 99.143 95.8624C99.1082 95.8191 99.0582 95.7906 99.0031 95.7828C98.9481 95.775 98.8922 95.7884 98.8466 95.8202C98.5985 95.996 98.9125 96.3582 99.1066 96.6564C98.9616 96.8967 98.8168 97.1455 98.6971 97.385C98.6697 97.4244 98.6545 97.4709 98.6533 97.5188C98.6522 97.5667 98.6651 97.6138 98.6905 97.6545C98.7159 97.6951 98.7527 97.7273 98.7963 97.7472C98.8399 97.7671 98.8883 97.7737 98.9357 97.7663C98.9357 97.7663 99.0621 97.7627 99.0857 97.703C99.7324 97.0098 99.3035 97.0557 99.9224 97.4599C99.9966 97.5031 100.084 97.5185 100.168 97.5035C99.7847 98.2567 97.9855 101.733 97.2197 102.092C97.1394 98.5469 98.3584 95.0949 100.647 92.3864C100.649 92.4153 100.658 92.4432 100.674 92.4678C100.689 92.4924 100.71 92.5128 100.735 92.5272C100.824 92.6934 100.914 92.8596 100.994 93.0345C101.324 94.3895 101.108 95.8201 100.391 97.0164C100.387 96.9068 100.328 96.9 99.9063 96.5999C100.444 95.9266 100.674 95.7176 100.49 95.453L100.456 95.4539ZM100.774 91.5139C100.728 91.4847 100.675 91.4699 100.621 91.4715C100.567 91.473 100.514 91.4908 100.471 91.5225C99.1629 91.3605 97.8421 91.3331 96.5288 91.4405C98.7619 86.1122 99.0556 80.1695 97.3589 74.6469C97.346 74.603 97.3246 74.562 97.2959 74.5263C97.2672 74.4907 97.2317 74.461 97.1916 74.439C97.1514 74.4171 97.1073 74.4032 97.0617 74.3983C97.0162 74.3934 96.9702 74.3975 96.9262 74.4104C96.8823 74.4233 96.8413 74.4447 96.8056 74.4734C96.7699 74.5021 96.7403 74.5376 96.7183 74.5778C96.6963 74.6179 96.6825 74.6621 96.6776 74.7076C96.6727 74.7531 96.6768 74.7992 96.6897 74.8431C97.6503 78.1696 97.9178 81.6579 97.4757 85.0919C97.0335 88.526 95.8911 91.8327 94.1192 94.8074C93.3907 95.949 92.5966 97.0476 91.7411 98.0974C91.301 98.6413 90.8756 99.4042 89.7296 99.15C89.6418 99.1052 89.569 99.0358 89.5201 98.9503C89.4713 98.8648 89.4484 98.7669 89.4544 98.6685C89.5077 97.8741 89.8771 97.8129 90.0011 96.8309C89.9995 96.775 89.9758 96.722 89.9351 96.6836C89.8945 96.6453 89.8402 96.6246 89.7844 96.6262C89.7285 96.6277 89.6755 96.6515 89.6371 96.6921C89.5987 96.7328 89.578 96.787 89.5796 96.8429C89.4175 97.2093 89.2303 97.5641 89.0193 97.9048C88.9068 98.113 88.8393 98.3425 88.8213 98.5785C88.8033 98.8144 88.8352 99.0515 88.9149 99.2744L88.5326 99.4792C87.6346 99.935 87.0186 99.6319 86.8344 99.0889C86.3927 97.7939 87.9712 96.644 87.9122 96.3504C87.9069 96.3135 87.8919 96.2788 87.8688 96.2496C87.8456 96.2204 87.8152 96.1979 87.7805 96.1843C87.7459 96.1707 87.7082 96.1666 87.6714 96.1722C87.6346 96.1779 87.6 96.1933 87.571 96.2167C86.8771 96.717 86.3956 97.4589 86.2214 98.2965C85.3488 97.2753 86.1512 95.8268 86.9708 94.9853C91.7338 90.1259 92.1136 82.7171 89.8152 76.3461C89.7668 76.1281 89.3974 76.1892 89.4443 76.3566C90.7312 81.567 91.1457 86.6503 88.6325 91.4204C86.6256 91.3766 84.6215 91.5923 82.6699 92.0623C80.2621 92.8225 81.293 93.1812 81.2349 91.7319C81.5301 88.3303 81.0373 84.9064 79.7948 81.726C79.6402 81.334 79.2833 81.5381 79.3762 81.8392C79.5664 82.3961 79.7349 82.9818 79.8817 83.5963C79.7247 84.3609 79.5237 85.1158 79.2795 85.8573C78.9819 86.8082 78.3703 87.63 77.5449 88.1882C76.7195 88.7465 75.7292 89.0082 74.7358 88.9305C74.8951 88.8828 75.0426 88.8023 75.1688 88.6941C75.2951 88.5859 75.3972 88.4524 75.4687 88.3023C75.5347 88.3355 75.6072 88.3536 75.6811 88.3553C76.1699 88.3414 76.9214 87.4765 77.2066 87.1225C77.4288 86.7508 77.5346 86.3211 77.5102 85.8888C77.4859 85.4565 77.3326 85.0413 77.0702 84.6969C76.7003 83.9211 76.2526 83.1848 75.7339 82.4995C75.7519 82.4473 75.7502 82.3904 75.7294 82.3393C75.2425 81.8087 74.5903 81.4585 73.879 81.3459C75.3174 80.0144 76.0227 77.2274 76.2385 75.3233C82.6152 75.5975 89.9731 73.5916 94.6247 69.2668C95.0835 69.6144 95.5196 69.9908 95.9305 70.3938C98.7745 73.1052 103.083 80.1529 104.87 88.1076C104.947 88.4428 105.345 90.3042 105.498 90.6204C103.826 91.1487 102.555 91.5476 101.321 92.0466C101.191 91.8329 101.016 91.6506 100.808 91.5129L100.774 91.5139ZM68.26 70.9274C68.1654 70.5673 67.6582 70.8264 66.464 70.0674C68.2528 68.8946 67.3349 64.5004 67.4873 61.5521C68.3302 61.5281 69.1704 61.4114 70.0102 61.2779C70.0387 61.9582 70.2255 62.6225 70.5558 63.2179C70.8861 63.8133 71.3508 64.3235 71.9129 64.7077C71.5252 64.7187 71.1353 64.6539 70.7558 64.6563C70.3762 64.6586 69.1796 64.7011 69.0775 64.9655C69.0659 64.9922 69.06 65.0211 69.0602 65.0502C69.0604 65.0793 69.0666 65.1081 69.0785 65.1347C69.0903 65.1614 69.1076 65.1852 69.1291 65.2048C69.1506 65.2244 69.176 65.2394 69.2036 65.2487C70.2044 65.203 71.2069 65.2083 72.2071 65.2645C73.2345 65.3714 74.2522 65.5568 75.2513 65.8191C75.3005 65.8177 75.3471 65.7968 75.3809 65.7611C75.4147 65.7253 75.4328 65.6776 75.4314 65.6284C75.4301 65.5792 75.4092 65.5326 75.3734 65.4988C75.3376 65.465 75.2899 65.4468 75.2407 65.4482L75.0705 65.394C76.1251 65.2338 77.0862 64.6975 77.7763 63.884C78.4664 63.0706 78.8389 62.0349 78.8251 60.9683C78.9521 60.9559 79.0802 60.9755 79.1978 61.0251C79.3867 62.0064 79.9039 62.8943 80.6644 63.5426C81.4248 64.1909 82.3833 64.5612 83.3821 64.5926C83.3594 64.612 83.3429 64.6377 83.3347 64.6664C83.3265 64.6951 83.327 64.7257 83.3361 64.7541C83.4249 64.9119 83.6227 64.746 83.9887 64.5669C85.0269 64.4623 85.9941 63.9923 86.7179 63.2408C88.5651 62.3447 89.5492 61.9456 90.7546 61.3208C91.0142 61.2544 90.7999 60.8387 90.6174 60.9451C84.86 63.1671 88.5655 62.9521 87.8385 59.337C91.0921 59.2445 92.093 58.2544 94.2189 55.8826C94.9689 58.5269 94.6816 61.7744 96.4209 62.7203C96.6591 62.8608 96.9351 62.9237 97.2106 62.9003C96.9625 63.483 96.5778 63.9974 96.0891 64.4C96.0258 64.4496 95.9813 64.5193 95.9629 64.5975C95.9444 64.6757 95.9532 64.7579 95.9876 64.8305C96.0221 64.9031 96.0802 64.9619 96.1524 64.9971C96.2247 65.0323 96.3068 65.0419 96.3852 65.0243C96.7379 64.9149 97.0835 64.7839 97.4201 64.6321C96.25 66.6409 94.7016 68.4037 92.8606 69.8231C83.5477 76.6508 70.3357 75.3983 66.6305 71.4714C67.1118 71.4536 67.5902 71.3891 68.0591 71.279C68.1323 71.2589 68.1945 71.2106 68.2322 71.1447C68.2699 71.0788 68.2799 71.0006 68.26 70.9274ZM76.1326 27.6819C77.2441 28.3358 78.2307 29.1817 79.0464 30.1804C79.098 30.2304 79.1617 30.2661 79.2314 30.284C79.301 30.3019 79.374 30.3013 79.4433 30.2823C79.5127 30.2633 79.5758 30.2265 79.6266 30.1756C79.6773 30.1248 79.7139 30.0615 79.7328 29.9922C80.1213 28.9151 80.8759 28.0088 81.8649 27.4317C82.8539 26.8547 84.0142 26.6435 85.1431 26.8353C86.1725 27.1075 87.0525 27.776 87.5907 28.6948C88.1289 29.6136 88.2817 30.708 88.0156 31.7391C87.9942 31.8279 88.0022 31.9212 88.0383 32.0051C88.0745 32.0889 88.137 32.1588 88.2163 32.2041C88.2956 32.2494 88.3874 32.2677 88.4781 32.2563C88.5687 32.2449 88.6531 32.2044 88.7188 32.1409C89.6641 31.2704 91.0918 32.2337 91.5055 32.5425C91.9575 32.8348 92.3393 33.2234 92.6236 33.6805C92.9078 34.1377 93.0875 34.652 93.1497 35.1867C93.2194 37.6395 90.5555 38.8878 88.7825 39.7227C88.7195 39.7603 88.6683 39.8146 88.6344 39.8796C88.6005 39.9446 88.5853 40.0177 88.5905 40.0909C88.5954 42.343 88.2994 44.6881 88.0944 46.9716C87.2637 47.4254 86.9402 47.6202 86.9402 47.6202C86.8606 47.6 86.7833 47.5711 86.71 47.5339C86.791 46.823 87.2624 42.9292 87.2168 42.2135C87.1987 42.1634 87.1653 42.1203 87.1212 42.0903C87.0772 42.0603 87.0248 42.0449 86.9716 42.0464C86.9183 42.0479 86.8669 42.0662 86.8247 42.0987C86.7824 42.1311 86.7515 42.1761 86.7363 42.2272C86.5927 42.8133 86.3154 47.3005 86.3084 47.3513C85.2082 46.8855 84.0412 46.5969 82.8508 46.4964C82.899 45.8202 82.75 35.533 82.7397 35.1705C82.7358 35.0357 82.6012 35.0479 82.5169 35.0503C82.4848 35.0512 82.4542 35.0642 82.4313 35.0868C82.4085 35.1094 82.3951 35.1398 82.3939 35.1719C82.1062 39.5919 82.1697 45.0901 82.2675 46.4539L82.0146 46.4611C79.9428 46.2512 77.8511 46.554 75.9239 47.3429C75.7945 46.3511 74.9435 42.5287 74.3454 40.1837C74.3398 39.9899 73.9923 39.9323 73.9998 40.1935C73.9967 40.2131 73.9972 40.2332 74.0014 40.2525C74.7427 43.7744 75.181 46.7313 75.3738 47.5778C74.1673 48.1549 73.0518 48.9057 72.0629 49.8062C71.6712 47.8861 71.178 45.9882 70.5853 44.1204C69.16 39.6816 67.6895 40.4742 65.7909 39.8617C65.2998 39.6702 64.8603 39.3662 64.5079 38.9742C64.1554 38.5821 63.8998 38.1129 63.7615 37.6042C63.6232 37.0955 63.606 36.5615 63.7114 36.0449C63.8168 35.5284 64.0418 35.0438 64.3684 34.6299C64.9037 33.982 65.6319 33.5219 66.447 33.3166C67.262 33.1114 68.1213 33.1717 68.8996 33.4888C69.1809 33.5905 69.409 33.3056 69.3671 33.02C69.1688 32.1406 69.2231 31.2231 69.5238 30.3733C69.8245 29.5234 70.3593 28.7759 71.0666 28.217C71.7739 27.658 72.6247 27.3104 73.521 27.2143C74.4174 27.1181 75.3226 27.2773 76.1323 27.6735L76.1326 27.6819ZM86.4248 47.8879L86.2088 48.0037C86.16 48.0478 86.129 48.1083 86.1217 48.1737C86.1144 48.2391 86.1312 48.305 86.169 48.3588C86.2068 48.4127 86.263 48.4509 86.327 48.4662C86.391 48.4815 86.4584 48.4729 86.5165 48.442C88.649 47.1714 90.9136 46.1368 93.2701 45.3566C93.8975 45.1701 95.3066 44.5901 95.6533 45.2129C95.6602 45.2886 95.6623 45.3646 95.6598 45.4405C94.7453 45.4945 93.8704 45.8319 93.1565 46.4059L88.7864 49.0608C88.4466 49.2729 89.0216 49.6193 89.0549 49.3062C89.0525 49.2219 88.8545 49.3794 94.2503 46.3073C94.3749 46.2363 95.5302 45.6298 95.7129 46.1223C95.243 51.2561 93.7743 52.7066 93.0352 54.3051C93.003 54.3685 92.9955 54.4417 93.0142 54.5104C93.033 54.5791 93.0766 54.6383 93.1366 54.6766C93.1967 54.7149 93.2688 54.7295 93.339 54.7175C93.4092 54.7056 93.4724 54.6679 93.5163 54.6119C93.5652 54.5515 93.597 54.4831 93.6459 54.4227C93.7541 54.6337 93.8504 54.8506 93.9343 55.0724C90.2535 59.1249 90.8656 57.8085 87.7266 58.9606C87.4249 57.9222 86.7515 57.0312 85.8349 56.4575C84.9182 55.8839 83.8225 55.6677 82.7567 55.8503C81.6909 56.0328 80.7296 56.6013 80.0561 57.4473C79.3826 58.2934 79.0441 59.3577 79.1052 60.4373C78.9898 60.3872 78.8659 60.3592 78.7401 60.3549C78.5705 59.3031 78.0244 58.3489 77.2036 57.6697C76.3827 56.9906 75.3431 56.6329 74.2782 56.6632C73.2133 56.6934 72.1956 57.1096 71.4147 57.8343C70.6338 58.559 70.1428 59.5427 70.0332 60.6024C69.1937 60.7444 68.3517 60.802 67.51 60.8681C67.761 58.1645 68.6023 55.5489 69.9747 53.206C75.4943 43.8037 86.3237 47.8908 86.4248 47.8879ZM86.1877 62.986C84.5259 63.8768 84.5299 64.02 83.687 64.044C82.7854 64.0803 81.8997 63.7991 81.1842 63.2493C80.4686 62.6995 79.9687 61.9161 79.7716 61.0355C79.5744 60.155 79.6926 59.2332 80.1053 58.4308C80.5181 57.6284 81.1994 56.9963 82.0304 56.6447C82.8614 56.2931 83.7895 56.2442 84.6528 56.5067C85.5161 56.7691 86.26 57.3262 86.7547 58.0808C87.2494 58.8355 87.4637 59.7398 87.36 60.6362C87.2564 61.5325 86.8415 62.3641 86.1877 62.986ZM78.2713 61.372C78.1913 62.3498 77.7398 63.2597 77.0096 63.9148C76.2794 64.5699 75.326 64.9204 74.3453 64.8943C73.3647 64.8681 72.4313 64.4674 71.737 63.7743C71.0427 63.0813 70.6403 62.1486 70.6124 61.168C70.5845 60.1874 70.9333 59.2334 71.5871 58.502C72.2409 57.7706 73.15 57.3175 74.1276 57.2357C75.1052 57.1539 76.0769 57.4496 76.8432 58.0622C77.6094 58.6748 78.1119 59.5576 78.2474 60.5292C77.7031 60.9664 77.7831 61.7065 78.2554 61.4062L78.2713 61.372ZM69.6976 52.9524C68.9199 51.7092 67.3245 49.8903 66.6241 48.9907C65.9236 48.0911 65.5454 47.5451 64.6546 47.6632C64.4523 47.669 64.432 47.8467 64.5103 47.9288C64.7542 48.2003 64.9696 47.4687 66.0052 48.8817C66.8182 49.83 67.5786 50.8222 68.2829 51.8538C69.5906 53.6387 69.6323 53.0302 69.2703 53.6478C68.8597 53.0484 68.3199 52.5486 67.6905 52.1855C67.0612 51.8223 66.3584 51.605 65.6339 51.5495C65.5786 51.5499 65.5251 51.5696 65.4829 51.6054C65.4406 51.6411 65.4123 51.6906 65.4028 51.7451C65.3933 51.7996 65.4032 51.8557 65.4309 51.9037C65.4586 51.9516 65.5022 51.9883 65.5541 52.0073C66.9423 52.2006 68.199 52.9313 69.0537 54.042L68.8774 54.3676C68.5056 54.0194 68.0425 53.7839 67.5421 53.6885C66.9821 53.5932 66.417 53.5304 65.8497 53.5004C65.7973 53.4974 65.7455 53.5133 65.7038 53.5452C65.6621 53.5771 65.6333 53.6229 65.6225 53.6742C65.6117 53.7256 65.6197 53.7791 65.645 53.8251C65.6703 53.8711 65.7113 53.9064 65.7605 53.9248C66.7488 54.2678 67.7687 53.9436 68.7206 54.7854C68.5926 55.0337 68.4734 55.2901 68.371 55.5461C67.9637 55.6014 67.5734 55.7449 67.2273 55.9667C66.5871 56.297 66.8775 56.7189 67.1682 56.5588C67.4563 56.3702 67.7705 56.2249 68.1007 56.1274C67.7646 57.0298 67.5088 57.9602 67.3362 58.9076C64.2648 55.317 63.3135 50.637 64.0566 47.9923C64.1061 47.7322 64.2541 47.5011 64.4697 47.3473C64.6853 47.1934 64.9519 47.1287 65.2141 47.1665C65.7157 47.3164 66.1799 47.5705 66.5765 47.9123C69.7312 50.2774 69.376 50.2453 70.8092 51.1071C70.3666 51.6758 69.9934 52.2953 69.6976 52.9524ZM71.1388 87.624C71.1544 87.5629 71.1526 87.4987 71.1335 87.4386C69.3306 83.3648 72.3937 80.7302 75.0336 82.4941C74.9813 82.7318 75.4215 83.3772 75.5703 83.567C77.1189 86.1127 77.0497 86.3509 75.8247 87.4739C75.6684 87.6133 75.6186 87.64 75.5841 87.6157C75.4844 87.5153 75.4039 87.3975 75.3465 87.2682C74.5931 85.9905 74.4557 85.6064 74.2141 85.7145C74.1832 85.7258 74.1557 85.7449 74.1342 85.7699C74.1127 85.7949 74.0979 85.8249 74.0912 85.8572C74.0845 85.8894 74.0862 85.9229 74.096 85.9543C74.1058 85.9858 74.1235 86.0142 74.1474 86.0369C74.2338 86.1104 74.008 85.8806 74.71 87.4297C75.0964 88.2622 75.1521 87.8473 74.7303 88.1461C74.0748 88.5275 73.5616 88.5758 72.999 86.5926C72.978 86.5395 72.9396 86.4952 72.8901 86.4668C72.8406 86.4383 72.783 86.4274 72.7266 86.4359C72.6701 86.4443 72.6182 86.4716 72.5792 86.5133C72.5402 86.555 72.5165 86.6086 72.5119 86.6655C72.4636 87.2627 72.6334 87.8572 72.9896 88.339C72.8009 88.4931 72.5786 88.6006 72.3406 88.6527C72.0119 88.2338 71.6034 87.8841 71.1388 87.624ZM72.7882 89.2642C72.9707 89.2072 73.1422 89.1197 73.2954 89.0052C76.575 90.4219 79.4167 88.3081 80.2328 85.265C80.6225 87.3517 80.7566 89.4781 80.6322 91.5972C80.5577 92.0422 80.5707 92.4974 80.6703 92.9374C78.4716 94.1632 76.7135 96.0485 75.644 98.3272C74.5104 98.6504 73.395 99.0341 72.3024 99.4767C73.8117 96.1861 74.7965 92.2524 72.788 89.2558L72.7882 89.2642ZM71.8891 100.366C75.8705 98.8776 74.3913 99.3667 75.393 98.9924C75.082 99.7578 74.8503 100.553 74.7012 101.366C72.7719 103.546 71.0592 105.908 69.5873 108.42C69.4404 108.635 69.3651 108.891 69.3719 109.151C69.3683 109.161 69.3665 109.171 69.3668 109.181C69.3671 109.191 69.3694 109.201 69.3736 109.21C69.3871 110.486 69.8064 111.724 70.5707 112.745C70.9328 113.052 71.3555 113.279 71.8114 113.411C72.2672 113.543 72.7459 113.578 73.216 113.513C74.1348 113.487 71.537 113.797 99.7359 109.596C102.261 109.406 103.208 108.004 104.367 105.735C105.094 104.306 107.744 99.5911 107.8 99.5051C108.233 98.7591 108.488 97.9231 108.544 97.0625C108.6 96.2019 108.456 95.34 108.123 94.5442C108.126 94.4095 108.102 94.2756 108.052 94.1504C108.002 94.0253 107.928 93.9115 107.833 93.8158C107.738 93.72 107.625 93.6444 107.5 93.5934C107.376 93.5423 107.242 93.5169 107.107 93.5186C105.369 93.3602 103.617 93.4698 101.912 93.8435C101.895 93.3139 101.774 92.7928 101.556 92.3099C103.699 91.7175 104.399 91.4446 110.914 89.4373C112.71 91.1391 114.606 92.733 116.592 94.2107C116.626 94.2534 116.669 94.2876 116.719 94.3106C116.769 94.3335 116.823 94.3447 116.878 94.3431C116.933 94.3416 116.986 94.3274 117.035 94.3016C117.083 94.2758 117.125 94.2392 117.156 94.1946C118.198 91.9717 119.157 89.8018 120.009 87.7193L121.444 93.3894C121.017 93.4903 120.62 93.6918 120.286 93.9772C119.952 94.2625 119.691 94.6234 119.525 95.0299C118.8 96.5352 119.056 98.4175 119.28 100.056C119.289 100.368 119.985 105.865 120.262 107.899C120.269 108 120.316 108.094 120.392 108.161C120.468 108.229 120.567 108.263 120.669 108.258C122.039 107.579 123.356 106.797 124.609 105.919L129.894 126.816C130.348 128.634 130.063 130.558 129.101 132.166C128.14 133.774 126.58 134.936 124.764 135.397L78.1633 147.182C76.3445 147.629 74.4228 147.34 72.8159 146.378C71.209 145.416 70.0467 143.858 69.5816 142.044L63.2708 117.086C64.5698 113.522 70.0373 104.071 71.8891 100.366ZM137.165 139.558C137.199 141.37 136.617 143.14 135.513 144.577C134.408 146.014 132.848 147.033 131.088 147.466L77.8287 160.933C75.7569 161.446 73.5665 161.12 71.7333 160.027C69.9001 158.934 68.5721 157.162 68.0377 155.096C65.5685 145.389 64.9996 142.883 64.9996 142.883C65.0074 141.636 64.9043 140.392 64.6914 139.163C63.6868 131.423 60.5572 125.784 62.7784 118.458L68.8632 142.292C69.3646 144.297 70.6393 146.021 72.4084 147.088C74.1776 148.156 76.2973 148.479 78.3043 147.988L124.939 136.21C126.943 135.689 128.661 134.396 129.716 132.613C130.771 130.831 131.079 128.704 130.573 126.695L125.223 105.539C126.256 104.793 127.245 103.988 128.2 103.143C138.079 142.054 137.133 137.855 137.156 139.558L137.165 139.558Z" fill="white"/>
<path d="M102.643 143.593C101.955 144.284 101.467 145.147 101.23 146.092C100.992 147.037 101.014 148.029 101.294 148.963C101.557 149.984 102.157 150.887 102.997 151.525C103.838 152.162 104.869 152.497 105.923 152.475C106.962 152.453 107.955 152.048 108.713 151.338C109.471 150.629 109.941 149.664 110.032 148.63C110.127 147.679 109.99 146.719 109.633 145.833C109.276 144.947 108.709 144.161 107.981 143.542C107.235 142.905 106.283 142.559 105.302 142.568C104.321 142.578 103.376 142.941 102.643 143.593ZM107.089 151.624C102.913 153.117 100.417 148.093 102.672 144.646C103.191 144 103.93 143.566 104.747 143.43C105.565 143.293 106.404 143.462 107.105 143.905C109.642 145.604 110.353 150.434 107.089 151.641L107.089 151.624ZM90.312 50.2069C91.1872 49.5423 92.1856 49.058 93.2493 48.7821C93.828 48.6644 94.0291 48.6165 94.0833 48.4463C94.0845 48.392 94.0655 48.3393 94.0301 48.2982C93.9946 48.2572 93.9452 48.2307 93.8914 48.224C92.5039 48.3246 91.1983 48.9182 90.2104 49.8976C90.1877 49.9219 90.1719 49.9519 90.1647 49.9844C90.1575 50.0169 90.1592 50.0507 90.1696 50.0823C90.1799 50.114 90.1987 50.1422 90.2237 50.1641C90.2488 50.186 90.2793 50.2008 90.312 50.2069ZM93.9561 50.2045C93.3468 50.0529 92.7113 50.0394 92.096 50.1649C91.4808 50.2904 90.9014 50.5517 90.4 50.9298C90.3686 50.9561 90.3468 50.9921 90.338 51.0321C90.3292 51.0721 90.3339 51.1139 90.3513 51.1509C90.3687 51.188 90.3979 51.2183 90.4344 51.237C90.4708 51.2557 90.5124 51.2619 90.5527 51.2545C91.2879 50.8172 92.1241 50.5784 92.9793 50.5612C93.5946 50.5437 94.0047 50.7261 94.0813 50.454C94.0965 50.4043 94.0919 50.3506 94.0686 50.3042C94.0453 50.2577 94.005 50.222 93.9561 50.2045ZM90.7999 51.6439C90.7703 51.6386 90.7399 51.64 90.711 51.648C90.682 51.6559 90.6551 51.6703 90.6323 51.6899C90.6096 51.7095 90.5915 51.734 90.5793 51.7615C90.5672 51.789 90.5614 51.8188 90.5622 51.8489C90.5631 51.879 90.5706 51.9084 90.5843 51.9352C90.598 51.962 90.6174 51.9854 90.6413 52.0037C90.6651 52.022 90.6927 52.0347 90.7221 52.041C90.7515 52.0473 90.782 52.047 90.8112 52.0401C91.3479 52.0759 91.8641 52.2598 92.3025 52.5713C92.3304 52.5958 92.3653 52.611 92.4022 52.6146C92.4392 52.6182 92.4763 52.6102 92.5084 52.5915C92.5405 52.5729 92.566 52.5446 92.5811 52.5108C92.5963 52.4769 92.6005 52.4391 92.593 52.4028C92.3677 52.1529 92.0904 51.9555 91.7806 51.8244C91.4709 51.6933 91.1361 51.6317 90.7999 51.6439ZM84.0388 65.4428C86.0622 64.2127 87.6887 64.158 89.2184 63.6674C89.4713 63.6603 89.3994 63.2068 89.2065 63.246C87.3 63.4469 85.4698 64.1037 83.8705 65.1607C83.6126 65.2862 83.7905 65.6101 84.0388 65.4428ZM68.7635 67.2773C70.8067 66.5488 72.9887 66.2936 75.1449 66.5307C75.3809 66.524 75.413 66.1688 75.0908 66.1105C72.9106 65.6688 70.6465 65.9311 68.6251 66.8595C68.4071 66.9079 68.5528 67.2833 68.7635 67.2773Z" fill="white"/>
<path d="M71.1325 69.0067C72.3094 68.316 73.5828 67.805 74.9107 67.4905C75.2011 67.9701 75.621 68.3579 76.1222 68.6093C76.6233 68.8607 77.1852 68.9655 77.7433 68.9115C77.8998 69.3625 78.187 69.7567 78.5684 70.0438C78.8909 70.3166 79.2825 70.495 79.6999 70.5595C80.1174 70.6239 80.5445 70.5718 80.9342 70.4089C81.3239 70.246 81.6611 69.9787 81.9086 69.6363C82.156 69.294 82.3041 68.89 82.3365 68.4689C82.9195 68.4038 83.4713 68.1722 83.926 67.8017C84.3808 67.4312 84.7191 66.9376 84.9006 66.3798C88.9 66.1143 89.373 66.1346 91.1541 65.8815C91.4323 65.8736 91.3948 65.4445 91.1409 65.4179C89.0867 65.4593 87.0374 65.6359 85.0064 65.9466C85.0263 65.8799 85.0413 65.8118 85.0512 65.7429C85.0678 65.6985 85.0745 65.6511 85.071 65.6039C85.0676 65.5567 85.054 65.5109 85.0311 65.4694C85.0083 65.4279 84.9768 65.3919 84.9387 65.3638C84.9007 65.3356 84.857 65.316 84.8107 65.3062C84.7644 65.2965 84.7165 65.2969 84.6704 65.3074C84.6242 65.3178 84.5809 65.3381 84.5433 65.3669C84.5057 65.3956 84.4747 65.4322 84.4526 65.474C84.4304 65.5158 84.4175 65.5619 84.4148 65.6091C84.4023 65.7591 84.3726 65.9072 84.3261 66.0503C84.1154 66.0563 83.7951 66.0654 83.8184 66.2925C83.8417 66.5196 84.0334 66.4382 84.1851 66.4339C84.0361 66.7549 83.8214 67.0411 83.5548 67.2739C83.2882 67.5067 82.9758 67.6809 82.6377 67.7854C81.5823 68.0516 80.7463 67.4259 80.0532 65.8934C81.0174 64.4994 80.5392 63.9985 80.0053 64.2077C79.8299 64.2717 80.0065 64.2498 79.0962 64.2757C78.1859 64.3016 78.1075 65.1052 78.825 65.7174L79.2305 66.0349C79.0765 67.1443 78.6968 68.3277 77.5428 68.3858C77.1435 68.3884 76.749 68.3002 76.3889 68.1277C76.0289 67.9553 75.7128 67.7031 75.4646 67.3904L75.7916 67.3221C76.0108 67.3159 76.1257 66.9077 75.6369 66.9216C73.9191 66.9647 72.2576 67.5427 70.884 68.5751C70.8557 68.5914 70.8308 68.6132 70.8109 68.6391C70.7909 68.665 70.7763 68.6946 70.7678 68.7262C70.7593 68.7577 70.7571 68.7907 70.7613 68.8231C70.7656 68.8555 70.7761 68.8868 70.7924 68.9151C70.8088 68.9435 70.8305 68.9683 70.8564 68.9883C70.8823 69.0082 70.9119 69.0228 70.9435 69.0313C70.9751 69.0398 71.008 69.042 71.0404 69.0378C71.0729 69.0336 71.1041 69.023 71.1325 69.0067ZM79.7176 66.5525C79.8826 66.993 80.1466 67.3898 80.4892 67.712C80.8319 68.0343 81.244 68.2735 81.6938 68.4112C81.6974 68.5376 81.701 68.6641 81.6538 68.7835C81.5595 69.0475 81.4027 69.2847 81.1968 69.4749C80.9909 69.6652 80.742 69.8028 80.4714 69.8759C80.2008 69.9491 79.9165 69.9557 79.6428 69.8951C79.3691 69.8346 79.1141 69.7087 78.8996 69.5282C78.6365 69.3216 78.4218 69.06 78.2705 68.7616C78.6743 68.5403 79.0176 68.223 79.27 67.8378C79.5223 67.4526 79.6761 67.0112 79.7176 66.5525ZM70.9765 56.6951C71.2631 56.687 71.3084 56.2049 72.1446 55.6496C72.5585 55.4165 72.9936 55.2233 73.4442 55.0728C73.792 54.8436 73.6225 54.2242 72.8018 54.4331L72.4015 54.5963C71.6658 54.9598 71.0848 55.5749 70.7637 56.33C70.7471 56.3677 70.7397 56.4089 70.742 56.45C70.7444 56.4911 70.7564 56.5311 70.7772 56.5667C70.7979 56.6023 70.8268 56.6325 70.8614 56.6548C70.8961 56.6771 70.9355 56.6909 70.9765 56.6951ZM84.4143 53.4281C84.6269 53.4179 84.84 53.4345 85.0484 53.4776C85.5063 53.5872 85.9498 53.7501 86.3697 53.963C87.2126 53.9391 85.9711 52.7006 84.4614 52.7098C84.1612 52.6886 83.8637 52.778 83.625 52.9613C83.2076 53.4118 83.8284 53.5882 84.4143 53.4281ZM77.8248 103.529C77.9015 103.514 77.9706 103.473 78.0195 103.412C78.0684 103.351 78.0941 103.275 78.0918 103.197C78.0896 103.119 78.0597 103.044 78.0074 102.986C77.9551 102.928 77.8838 102.89 77.8064 102.88C77.7296 102.895 77.6606 102.936 77.6117 102.997C77.5628 103.058 77.5371 103.134 77.5393 103.212C77.5416 103.29 77.5715 103.365 77.6238 103.423C77.6761 103.481 77.7474 103.519 77.8248 103.529ZM80.2231 103.916C80.2998 103.902 80.3688 103.86 80.4178 103.799C80.4667 103.738 80.4924 103.662 80.4901 103.584C80.4879 103.506 80.458 103.431 80.4057 103.373C80.3533 103.315 80.2821 103.278 80.2047 103.267C80.0866 103.271 79.8463 103.421 79.9038 103.664C79.9223 103.735 79.9635 103.798 80.0211 103.844C80.0787 103.889 80.1497 103.915 80.2231 103.916ZM82.7127 102.471C82.7831 102.457 82.8463 102.418 82.891 102.362C82.9358 102.306 82.9593 102.236 82.9572 102.164C82.9552 102.092 82.9278 102.024 82.8799 101.97C82.832 101.917 82.7668 101.882 82.6957 101.872C82.6253 101.886 82.5621 101.924 82.5173 101.981C82.4725 102.037 82.4491 102.107 82.4511 102.179C82.4532 102.25 82.4806 102.319 82.5284 102.372C82.5763 102.426 82.6416 102.461 82.7127 102.471ZM83.9558 104.063C84.0318 104.061 84.1039 104.029 84.1561 103.974C84.2083 103.918 84.2364 103.845 84.2342 103.769C84.2321 103.693 84.1998 103.621 84.1446 103.568C84.0893 103.516 84.0155 103.488 83.9395 103.49C83.8635 103.492 83.7915 103.525 83.7393 103.58C83.6871 103.635 83.6589 103.709 83.6611 103.785C83.6633 103.861 83.6955 103.933 83.7508 103.985C83.8061 104.037 83.8798 104.065 83.9558 104.063ZM86.9985 101.598C86.9964 101.524 86.9651 101.454 86.9114 101.404C86.8578 101.353 86.7862 101.326 86.7124 101.328C86.6386 101.33 86.5687 101.361 86.5181 101.415C86.4674 101.468 86.4401 101.54 86.4422 101.614C86.4443 101.688 86.4756 101.757 86.5292 101.808C86.5829 101.859 86.6545 101.886 86.7282 101.884C86.802 101.882 86.8719 101.851 86.9226 101.797C86.9733 101.743 87.0006 101.672 86.9985 101.598ZM89.3043 103.481C89.3578 103.465 89.4046 103.432 89.4374 103.387C89.4702 103.342 89.4871 103.287 89.4855 103.231C89.4839 103.175 89.4639 103.122 89.4286 103.079C89.3933 103.035 89.3448 103.005 89.2904 102.992C89.2525 102.993 89.2152 103.003 89.1817 103.021C89.1482 103.038 89.1192 103.064 89.0972 103.095C89.0752 103.126 89.0606 103.161 89.0547 103.199C89.0488 103.236 89.0518 103.275 89.0633 103.311C89.0781 103.362 89.1101 103.407 89.1539 103.438C89.1977 103.469 89.2508 103.484 89.3043 103.481ZM94.322 102.537C94.44 102.534 94.6136 102.411 94.5575 102.218C94.5015 102.026 94.383 102.012 94.3078 102.04C94.25 102.052 94.1984 102.084 94.1619 102.131C94.1254 102.177 94.1063 102.235 94.108 102.294C94.1097 102.353 94.132 102.41 94.1711 102.454C94.2102 102.499 94.2636 102.528 94.322 102.537ZM95.3429 100.467C95.4189 100.464 95.4909 100.432 95.5431 100.377C95.5953 100.322 95.6235 100.248 95.6213 100.172C95.6191 100.096 95.5869 100.024 95.5316 99.9716C95.4763 99.9194 95.4026 99.8912 95.3266 99.8934C95.2506 99.8955 95.1785 99.9278 95.1263 99.9831C95.0741 100.038 95.046 100.112 95.0481 100.188C95.0503 100.264 95.0826 100.336 95.1378 100.388C95.1931 100.441 95.2669 100.469 95.3429 100.467ZM91.6586 101.727C91.7346 101.725 91.8066 101.693 91.8589 101.637C91.9111 101.582 91.9392 101.508 91.937 101.432C91.9349 101.356 91.9026 101.284 91.8473 101.232C91.7921 101.18 91.7183 101.152 91.6423 101.154C91.5663 101.156 91.4943 101.188 91.4421 101.244C91.3898 101.299 91.3617 101.373 91.3639 101.449C91.366 101.525 91.3983 101.597 91.4536 101.649C91.5088 101.701 91.5826 101.729 91.6586 101.727ZM76.653 105.334C76.6985 105.332 76.7431 105.321 76.7835 105.3C76.8239 105.279 76.859 105.249 76.8863 105.213C76.9136 105.176 76.9324 105.134 76.9413 105.089C76.9501 105.045 76.9488 104.999 76.9374 104.955C76.9305 104.899 76.906 104.847 76.8675 104.807C76.8291 104.766 76.7787 104.739 76.7237 104.73C76.6687 104.72 76.6121 104.728 76.5621 104.753C76.512 104.778 76.4712 104.818 76.4457 104.867C76.4199 104.91 76.4049 104.959 76.4019 105.009C76.3988 105.059 76.4078 105.109 76.4282 105.154C76.4485 105.2 76.4795 105.24 76.5187 105.272C76.5578 105.303 76.6038 105.324 76.653 105.334ZM91.7554 133.915L78.4666 137.084C77.632 137.285 76.9053 137.797 76.4346 138.515C75.964 139.233 75.7848 140.103 75.9336 140.948C76.0824 141.794 76.548 142.551 77.2355 143.065C77.923 143.579 78.7806 143.812 79.6337 143.715C80.0045 143.705 78.9194 143.812 93.2656 140.451C93.7347 140.394 94.1863 140.238 94.5913 139.994C94.9963 139.751 95.3456 139.425 95.6165 139.038C95.8875 138.65 96.074 138.211 96.1641 137.747C96.2541 137.283 96.2457 136.805 96.1393 136.345C96.0329 135.884 95.831 135.451 95.5465 135.074C95.2621 134.696 94.9015 134.383 94.4882 134.154C94.0749 133.925 93.618 133.785 93.1472 133.744C92.6765 133.703 92.2023 133.761 91.7554 133.915ZM93.0919 139.68L79.8452 142.849C79.2095 142.957 78.5564 142.819 78.0193 142.462C77.4823 142.105 77.1018 141.556 76.9558 140.928C76.8098 140.3 76.9091 139.64 77.2336 139.083C77.5581 138.525 78.0832 138.113 78.7016 137.93C88.6464 135.53 91.3606 134.862 92.1069 134.706C92.7474 134.608 93.4016 134.752 93.9409 135.111C94.4802 135.471 94.8657 136.019 95.0218 136.648C95.1613 137.301 95.0366 137.983 94.6748 138.545C94.313 139.107 93.7436 139.503 93.0909 139.647L93.0919 139.68Z" fill="white"/>
<path d="M91.2342 136.941C90.1929 137.106 86.1355 138.891 79.8484 139.989C79.604 139.996 79.6405 140.392 79.8597 140.385C81.8742 140.328 89.6735 138.419 91.4244 137.4C91.466 137.364 91.4952 137.315 91.5079 137.262C91.5206 137.208 91.5161 137.152 91.495 137.101C91.474 137.051 91.4374 137.008 91.3906 136.979C91.3438 136.95 91.289 136.937 91.2342 136.941ZM118.22 127.747C115.132 128.931 115.175 133.384 118.345 133.918C118.768 133.975 119.199 133.944 119.61 133.828C120.021 133.711 120.404 133.512 120.735 133.241C121.065 132.971 121.337 132.636 121.533 132.256C121.729 131.876 121.845 131.46 121.873 131.034C122.418 129.12 120.127 127.161 118.22 127.747ZM119.03 133.392C118.691 133.432 118.348 133.396 118.025 133.289C117.701 133.181 117.405 133.004 117.157 132.77C116.909 132.536 116.716 132.25 116.59 131.933C116.464 131.616 116.409 131.276 116.429 130.936C116.562 129.363 117.929 127.907 119.442 128.319C122.635 129.359 121.284 133.143 119.064 133.391L119.03 133.392Z" fill="white"/>
<path d="M118.155 129.916C117.917 129.94 117.696 130.048 117.531 130.221C117.224 130.71 117.479 131.066 117.951 131.053C117.903 131.72 117.85 132.532 118.441 132.549C118.643 132.543 119.515 132.349 119.984 132.235C120.04 132.238 120.096 132.229 120.149 132.209C120.201 132.19 120.249 132.159 120.289 132.12C120.329 132.081 120.361 132.034 120.382 131.982C120.403 131.93 120.413 131.874 120.411 131.818C120.403 131.531 120.416 132.003 120.289 130.809C120.525 130.802 120.632 130.689 120.635 130.495L120.569 129.983C120.567 129.946 120.558 129.91 120.542 129.878C120.526 129.845 120.504 129.815 120.477 129.791C120.449 129.767 120.417 129.748 120.383 129.736C120.348 129.724 120.312 129.719 120.275 129.721C120.048 129.728 119.712 129.779 119.712 129.779C119.712 129.779 120.079 129.651 120.122 129.388C120.138 129.324 120.135 129.258 120.116 129.195C120.096 129.133 120.06 129.077 120.011 129.033C119.962 128.99 119.903 128.96 119.838 128.948C119.774 128.935 119.708 128.941 119.646 128.963C119.507 129.044 119.384 129.152 119.287 129.281C119.189 129.41 119.118 129.557 119.077 129.713C118.439 128.626 117.514 129.336 118.155 129.916ZM119.725 130.842C119.736 131.23 119.8 131.388 119.842 131.682C119.53 131.691 118.753 131.949 118.459 132C118.448 131.953 118.447 131.904 118.455 131.856L118.431 131.014C118.857 130.921 119.29 130.864 119.725 130.842ZM111.192 128.908C108.656 128.702 107.043 131.312 107.808 133.61C108.091 134.259 108.568 134.804 109.174 135.171C109.78 135.537 110.484 135.707 111.19 135.657C115.06 135.293 115.224 129.181 111.192 128.908ZM113.028 134.136C112.526 134.697 111.821 135.036 111.07 135.078C110.318 135.12 109.581 134.861 109.019 134.36C108.564 133.924 108.265 133.351 108.168 132.728C108.072 132.105 108.183 131.468 108.485 130.914C108.787 130.361 109.263 129.923 109.84 129.668C110.416 129.412 111.06 129.354 111.673 129.502C112.136 129.636 112.556 129.886 112.896 130.228C113.235 130.57 113.482 130.992 113.614 131.456C113.745 131.92 113.756 132.409 113.646 132.878C113.537 133.347 113.309 133.781 112.986 134.138L113.028 134.136ZM123.852 128.826L125.175 129.379C124.798 130.073 124.455 130.766 124.153 131.425C124.117 131.487 124.107 131.561 124.126 131.631C124.144 131.701 124.19 131.761 124.253 131.797C124.315 131.833 124.39 131.843 124.459 131.825C124.529 131.806 124.589 131.76 124.625 131.698C125.004 131.088 125.433 130.426 125.841 129.656C126.294 129.871 126.447 129.917 127.291 130.239C127.472 130.346 127.687 130.382 127.893 130.34C127.935 130.326 127.972 130.303 128.003 130.272C128.034 130.241 128.057 130.204 128.071 130.162C128.084 130.121 128.088 130.077 128.081 130.033C128.075 129.99 128.058 129.949 128.033 129.914C127.832 129.675 127.816 129.709 126.155 129.124C126.547 128.396 127.318 127.328 126.749 127.167C126.332 127.052 125.93 128.033 125.473 128.89L124.049 128.357C123.715 128.181 123.545 128.709 123.852 128.826ZM92.3556 122.678C90.7268 122.952 88.0257 123.78 83.0636 124.899C75.9141 126.52 76.1362 126.319 73.7608 127.037C73.7093 127.052 73.6644 127.084 73.6329 127.128C73.6014 127.171 73.5852 127.224 73.5867 127.278C73.5883 127.331 73.6075 127.383 73.6414 127.425C73.6752 127.467 73.722 127.496 73.7742 127.509C75.3251 127.464 89.5813 124.199 92.4908 123.282C92.5617 123.256 92.6207 123.204 92.6569 123.138C92.693 123.072 92.7038 122.994 92.6873 122.921C92.6708 122.847 92.628 122.782 92.567 122.737C92.506 122.692 92.4308 122.672 92.3556 122.678ZM99.6731 116.287C102.188 115.743 104.917 115.294 107.437 114.615C107.757 114.606 107.716 114.042 107.422 114.084C102.564 114.712 72.8549 121.579 72.4295 122.342C71.8909 123.277 79.0032 120.645 99.6731 116.287ZM113.721 116.394C112.657 115.741 111.461 116.399 110.815 117.404C109.695 119.553 110.172 121.522 111.08 123.782C110.996 123.785 74.4038 132.147 74.3484 132.275C74.293 132.403 74.3575 132.596 74.5261 132.591C76.8946 132.523 108.407 125.292 111.324 124.357C111.586 124.985 111.885 125.596 112.22 126.188C112.255 126.243 112.303 126.288 112.36 126.318C112.417 126.349 112.481 126.365 112.546 126.364C112.95 126.353 116.421 123.816 117.23 123.203C118.403 122.326 119.607 121.364 119.751 119.875C119.997 117.253 116.54 116.744 114.873 118.326C114.757 117.556 114.343 116.862 113.721 116.394ZM50.6829 26.8111C50.1706 26.5294 49.5915 26.3916 49.0071 26.4125C48.4228 26.4333 47.855 26.6121 47.3641 26.9296C46.8731 27.2472 46.4773 27.6918 46.2187 28.2162C45.9601 28.7406 45.8483 29.3253 45.8952 29.9081C45.8689 29.9454 45.8553 29.9901 45.8566 30.0357C45.8579 30.0813 45.874 30.1253 45.9024 30.161C46.3192 30.644 46.8574 31.007 47.4615 31.2124C48.0655 31.4179 48.7134 31.4583 49.3383 31.3297C49.9632 31.201 50.5424 30.9078 51.0161 30.4804C51.4898 30.053 51.8408 29.5069 52.0329 28.8985C52.2552 28.7066 52.1136 28.4744 52.0768 28.3658C51.8332 27.6853 51.3328 27.1273 50.6829 26.8111ZM46.2677 29.9566C46.2771 29.4004 46.4416 28.8579 46.7428 28.3903C47.044 27.9226 47.4699 27.5484 47.9724 27.3099C46.8838 28.1844 47.2967 30.5431 48.6351 30.7413C47.7756 30.785 46.9309 30.505 46.2677 29.9566ZM49.4573 30.5829C49.7558 30.3459 49.9858 30.0337 50.124 29.6785C50.2621 29.3233 50.3033 28.9377 50.2434 28.5613C50.2068 28.2191 50.0761 27.8938 49.8658 27.6213C49.6556 27.3489 49.374 27.1399 49.0523 27.0177C49.5439 27.006 50.0283 27.1379 50.4462 27.3972C50.8641 27.6565 51.1973 28.032 51.4052 28.4777C51.277 28.9556 51.0364 29.396 50.7034 29.7621C50.3704 30.1281 49.9548 30.4092 49.491 30.582L49.4573 30.5829ZM54.9579 25.5592C54.9401 25.4898 54.8984 25.429 54.8401 25.3874C54.7818 25.3459 54.7107 25.3263 54.6394 25.332C54.1083 25.3471 54.5311 25.9762 53.8705 27.9605C53.8567 28.0097 53.8598 28.062 53.8793 28.1092C53.8988 28.1564 53.9337 28.1956 53.9782 28.2206C54.0227 28.2456 54.0743 28.2549 54.1247 28.2471C54.1752 28.2392 54.2215 28.2147 54.2563 28.1773C54.4332 27.8565 54.5707 27.5155 54.6661 27.1618C54.8401 27.9414 55.0218 28.6954 55.2025 29.4157C55.2137 29.4586 55.2333 29.4989 55.26 29.5342C55.2868 29.5696 55.3202 29.5993 55.3584 29.6217C55.3967 29.6441 55.4389 29.6588 55.4829 29.6649C55.5268 29.6709 55.5714 29.6683 55.6143 29.6571C55.6572 29.6459 55.6975 29.6264 55.7328 29.5996C55.7681 29.5729 55.7979 29.5394 55.8203 29.5012C55.8427 29.463 55.8573 29.4207 55.8634 29.3768C55.8695 29.3329 55.8669 29.2882 55.8557 29.2453C55.5852 28.0383 55.2812 26.8406 54.9579 25.5592ZM60.2829 27.7107C59.5197 27.8674 59.0419 27.9738 58.448 28.1509C59.0289 27.3639 59.3446 26.4125 59.3493 25.4343C59.3189 25.1641 59.2066 24.9097 59.0274 24.7052C58.8481 24.5006 58.6106 24.3559 58.3467 24.2903C58.0999 24.2089 57.8342 24.2049 57.5851 24.2789C57.336 24.3529 57.1155 24.5013 56.9532 24.7043C56.7909 24.9073 56.6946 25.155 56.6772 25.4143C56.6599 25.6736 56.7223 25.932 56.856 26.1548C56.922 26.3975 57.328 26.1414 57.2649 25.9997C57.185 25.798 57.1776 25.5748 57.2441 25.3683C57.3105 25.1617 57.4467 24.9847 57.6292 24.8674C57.8167 24.7839 58.0281 24.7716 58.224 24.8328C58.4198 24.894 58.5866 25.0246 58.6931 25.1999C58.7692 25.4857 58.7842 25.7843 58.7373 26.0763C58.6904 26.3683 58.5825 26.6472 58.4208 26.8948C57.681 28.468 57.1201 28.6189 57.4673 28.9633C57.5051 29.002 57.5529 29.0296 57.6054 29.043C57.6578 29.0564 57.7129 29.0551 57.7647 29.0392C58.687 28.8851 59.5969 28.6647 60.4875 28.3798C60.5548 28.3373 60.6062 28.2739 60.6339 28.1993C60.6616 28.1248 60.664 28.0432 60.6407 27.9671C60.6175 27.891 60.5698 27.8247 60.5052 27.7784C60.4405 27.7321 60.3624 27.7083 60.2829 27.7107ZM63.9585 26.7374C64.07 26.3817 64.066 25.9998 63.9468 25.6466C63.8276 25.2934 63.5995 24.987 63.2953 24.7716C62.991 24.5562 62.6263 24.4428 62.2536 24.4478C61.8809 24.4527 61.5193 24.5757 61.2209 24.7991C61.1595 24.5498 61.0496 24.315 60.8975 24.1081C61.5424 24.009 62.1683 23.812 62.7536 23.5239C62.8317 23.5067 62.9036 23.4684 62.9615 23.4132C63.0194 23.358 63.0612 23.2881 63.0822 23.2109C63.0938 23.1464 63.0854 23.0799 63.058 23.0203C63.0307 22.9608 62.9858 22.911 62.9293 22.8778C62.6892 22.7412 62.4166 22.943 62.2333 23.0241C58.8984 24.4096 60.7413 23.3618 60.7333 25.454C60.7368 25.5185 60.7607 25.5803 60.8016 25.6303C60.8425 25.6802 60.8983 25.7159 60.9608 25.732C61.0234 25.7481 61.0894 25.7438 61.1494 25.7198C61.2093 25.6957 61.2601 25.6532 61.2942 25.5984C61.3144 25.5769 61.3282 25.5502 61.3342 25.5213C61.4954 25.2857 61.7404 25.1205 62.0192 25.0593C62.298 24.9981 62.5897 25.0455 62.8348 25.1919C63.0009 25.3064 63.1347 25.4618 63.2231 25.6432C63.3115 25.8246 63.3516 26.0257 63.3395 26.2271C63.3274 26.4285 63.2636 26.6234 63.1541 26.7929C63.0446 26.9623 62.8932 27.1007 62.7146 27.1945C62.2891 27.3682 61.8272 27.4335 61.3703 27.3846C61.1174 27.3918 61.0068 27.6564 61.1797 27.8033C61.4226 27.9636 61.7002 28.0637 61.9895 28.0953C62.2788 28.1268 62.5714 28.0889 62.8431 27.9846C63.1148 27.8804 63.3577 27.7129 63.5517 27.496C63.7457 27.279 63.8851 27.019 63.9585 26.7374ZM64.8078 25.4563C65.3403 25.3792 65.8647 25.2542 66.3746 25.0828C66.403 25.6547 66.5128 26.2197 66.7007 26.7606C66.7357 26.808 66.7831 26.8448 66.8377 26.867C66.8923 26.8892 66.9519 26.8959 67.0101 26.8864C67.0682 26.8769 67.1226 26.8516 67.1673 26.8132C67.212 26.7748 67.2452 26.7248 67.2633 26.6687C67.2949 26.0592 67.2117 25.4493 67.0181 24.8705C67.3297 24.8174 67.6188 24.6743 67.85 24.4588C67.8802 24.4181 67.8993 24.3703 67.9056 24.32C67.9119 24.2697 67.9052 24.2187 67.8861 24.1718C67.8669 24.1248 67.8361 24.0836 67.7964 24.0521C67.7567 24.0206 67.7096 23.9998 67.6596 23.9918C66.6274 23.8862 66.9789 24.6776 66.6716 23.3619C66.6696 23.2926 66.6402 23.2269 66.5898 23.1793C66.5394 23.1317 66.4722 23.1061 66.4029 23.108C66.3336 23.11 66.2679 23.1394 66.2203 23.1898C66.1727 23.2402 66.147 23.3075 66.149 23.3768C66.1528 23.5116 66.1512 23.4526 66.2348 24.3191C65.9338 24.412 65.667 24.5208 65.4003 24.6381C65.1337 24.7553 65.5765 23.7136 65.64 22.3874C65.6395 22.3435 65.6235 22.3012 65.5947 22.2681C65.566 22.2349 65.5264 22.213 65.4831 22.2063C65.1779 22.1559 65.1786 22.4764 64.6446 25.056C64.6148 25.1309 64.6152 25.2144 64.6456 25.289C64.6761 25.3636 64.7342 25.4236 64.8078 25.4563Z" fill="white"/>
<path d="M69.7613 25.5103C71.6075 25.4578 71.942 22.3857 70.1179 21.1382C69.1974 20.5147 68.3083 20.7003 67.9336 21.7656C67.4683 23.2047 68.2944 25.552 69.7613 25.5103ZM70.1122 22.1255C70.8547 23.0156 70.7111 24.4962 69.902 24.8229C69.0929 25.1496 68.364 23.8457 68.3977 22.6552C68.461 21.025 69.4813 21.2998 70.1365 22.0911L70.1122 22.1255Z" fill="white"/>
<path d="M73.3129 24.6408C75.378 24.5821 75.7433 21.1131 73.8887 19.968C73.718 19.8448 73.5217 19.7617 73.3145 19.7249C73.1072 19.6881 72.8943 19.6985 72.6916 19.7553C72.4889 19.8121 72.3017 19.914 72.1438 20.0532C71.9859 20.1924 71.8615 20.3654 71.7797 20.5594C71.5638 20.899 71.4411 21.2894 71.4239 21.6915C71.1409 23.0155 71.9306 24.6801 73.3129 24.6408ZM72.072 21.0488C72.1158 20.9117 72.1879 20.7854 72.2835 20.6779C72.3792 20.5704 72.4964 20.4842 72.6275 20.4248C72.7585 20.3654 72.9006 20.3342 73.0445 20.3332C73.1884 20.3321 73.3309 20.3613 73.4628 20.4188C74.8101 21.224 74.638 24.367 72.7664 23.8128C72.4942 23.6327 72.2741 23.3842 72.1281 23.0923C71.9821 22.8003 71.9154 22.4752 71.9346 22.1493C71.9181 21.7774 71.9645 21.4053 72.072 21.0488ZM75.9186 23.1243C76.0787 23.1197 75.7332 23.1295 76.8663 22.9286C77.4705 22.8186 77.3783 22.8381 78.2414 22.6364C78.5437 22.6153 78.8335 22.5075 79.0761 22.3259C79.1436 22.253 79.1798 22.1566 79.177 22.0573C79.1742 21.958 79.1325 21.8638 79.061 21.7949C78.853 21.5984 78.3494 21.6886 78.0917 21.8224C77.1787 22.0509 77.3042 22.0135 76.7356 22.19C77.1497 21.4969 77.4151 20.7252 77.5147 19.924C77.6003 19.078 76.871 18.3479 76.1866 18.6036C76.0489 18.6474 75.9279 18.7323 75.8398 18.8469C75.7518 18.9615 75.7009 19.1003 75.694 19.2446C75.6871 19.389 75.7245 19.532 75.8011 19.6544C75.8778 19.7769 75.9902 19.873 76.123 19.9298C76.5924 20.1189 76.6016 19.5535 76.4154 19.5334C76.3736 19.523 76.3367 19.4983 76.3111 19.4637C76.2855 19.429 76.2727 19.3865 76.2751 19.3434C76.2667 19.0484 76.5537 19.0571 76.718 19.1958C77.4196 19.8423 76.3527 21.7791 75.6675 22.6C75.6372 22.6492 75.6197 22.7053 75.6166 22.7631C75.6136 22.8208 75.6251 22.8784 75.6501 22.9306C75.675 22.9828 75.7127 23.0278 75.7596 23.0617C75.8065 23.0955 75.8612 23.117 75.9186 23.1243ZM79.8082 20.7782C80.1032 20.7699 80.0141 20.6037 80.3789 19.193C81.0408 21.7049 81.0791 21.8641 81.3866 21.9987C81.4334 22.033 81.4903 22.0506 81.5483 22.049C81.6063 22.0473 81.6621 22.0265 81.7069 21.9896C81.9177 21.6884 81.8211 21.5561 81.1998 19.583C80.6811 17.9528 80.6787 17.8685 80.3582 17.8692C80.2986 17.874 80.2425 17.899 80.1991 17.9402C80.1558 17.9813 80.1278 18.0361 80.12 18.0953C79.9821 18.8837 79.7932 19.6567 79.573 20.515C79.5757 20.5793 79.6006 20.6407 79.6435 20.6887C79.6864 20.7367 79.7446 20.7684 79.8082 20.7782ZM108.933 111.156L110.067 112.187C110.338 112.508 111.006 113.147 111.419 113.135C111.832 113.124 112.245 112.53 112.535 112.066C113.281 111.162 113.842 110.12 114.186 108.999C114.509 107.024 111.988 105.569 110.841 108.251C109.881 106.827 106.412 107.356 107.19 109.198C107.612 109.976 108.209 110.647 108.933 111.156ZM135.863 53.4164C135.579 53.2418 135.245 53.1641 134.913 53.1948C134.581 53.2256 134.268 53.3631 134.02 53.5869C133.433 54.2238 133.021 55.0031 132.828 55.8478C132.4 56.92 132.032 58.0147 131.723 59.1269C131.582 59.8142 131.962 59.8034 132.11 59.6727C133.613 59.748 138.571 58.4598 138.413 56.7772C138.316 56.3829 138.071 56.041 137.729 55.8229C137.386 55.6048 136.973 55.5272 136.575 55.6063C136.687 55.2119 136.679 54.793 136.552 54.403C136.425 54.013 136.185 53.6696 135.863 53.4164ZM136.467 81.4983C137.618 79.8375 138.65 77.8764 138.36 75.6745C138.321 75.0942 138.154 74.5298 137.871 74.0216C137.588 73.5134 137.197 73.074 136.724 72.7348C135.644 72.1328 134.465 73.0774 133.673 73.7157C129.664 76.9171 128.541 82.2044 127.522 86.738C127.314 87.6972 127.089 88.6821 126.973 89.647C126.494 91.4912 127.937 91.8298 129.162 91.8962C132.786 92.0715 138.021 89.8728 141.65 88.7405C143.406 88.1929 146.349 87.2741 146.225 84.6963C146.111 81.8568 140.979 79.3708 136.467 81.4983ZM130.916 52.4014C130.949 52.4423 130.99 52.4752 131.038 52.4972C131.085 52.5193 131.137 52.53 131.19 52.5286C131.242 52.5271 131.293 52.5134 131.339 52.4887C131.385 52.4639 131.425 52.4288 131.455 52.386C133.815 48.7006 135.91 44.8524 137.725 40.8703C139.188 37.4545 137.168 33.1676 133.642 34.0355C132.201 34.4138 130.977 35.5706 130.011 37.4707C129.631 36.3069 128.822 35.3315 127.748 34.7429C124.194 32.87 120.315 36.7763 122.345 40.2194C124.715 44.6018 127.592 48.6905 130.916 52.4014ZM74.1238 60.2836C74.1368 60.5192 74.1745 60.7528 74.2364 60.9805C74.3013 61.4848 74.3841 62.0223 74.8898 62.008C74.9562 62.0039 75.0211 61.9868 75.0808 61.9576C75.1406 61.9284 75.194 61.8878 75.238 61.838C75.282 61.7881 75.3158 61.7301 75.3374 61.6672C75.359 61.6044 75.368 61.5378 75.3638 61.4715C75.2712 61.0169 75.1372 60.5717 74.9633 60.1416C74.9198 60.0574 74.8507 59.9892 74.7659 59.9468C74.6811 59.9045 74.5851 59.8902 74.4917 59.906C74.3982 59.9218 74.3122 59.9669 74.2461 60.0347C74.18 60.1026 74.1371 60.1897 74.1238 60.2836ZM83.7528 58.6433C83.66 58.5772 83.5461 58.5477 83.4329 58.5602C83.3196 58.5728 83.215 58.6266 83.1389 58.7113C82.7813 58.8902 82.7783 60.8642 83.5791 60.8414C83.7013 60.8417 83.8196 60.7977 83.9119 60.7175C84.0042 60.6374 84.0644 60.5265 84.0812 60.4054C84.0705 60.0261 84.0211 60.0697 84.0139 59.8168C83.9885 58.9234 83.9165 58.7651 83.7528 58.6433ZM112.592 130.977C112.193 130.288 111.205 130.536 110.913 131.269C110.83 131.168 110.727 131.085 110.611 131.025C110.495 130.966 110.367 130.93 110.237 130.921C110.106 130.912 109.975 130.93 109.852 130.974C109.728 131.017 109.615 131.085 109.519 131.174C109.381 131.306 109.274 131.466 109.204 131.643C109.133 131.82 109.102 132.011 109.113 132.201C109.123 132.391 109.174 132.577 109.263 132.746C109.351 132.915 109.475 133.062 109.626 133.179C110.142 133.524 110.69 133.819 111.263 134.06C111.352 134.116 111.455 134.148 111.561 134.153C111.797 134.146 111.887 133.764 111.975 133.584C112.514 132.396 112.876 131.77 112.592 130.977ZM101.969 133.548C102.136 134.387 102.289 135.327 102.356 135.604L103.947 135.188C104.065 135.184 104.075 135.243 103.596 133.198C103.043 133.261 102.498 133.378 101.969 133.548Z" fill="white"/>
<path d="M101.99 131.329C101.387 131.587 100.864 132.003 100.478 132.534C100.092 133.065 99.8574 133.69 99.7983 134.344C99.7392 134.758 99.7706 135.179 99.8906 135.58C100.011 135.98 100.216 136.35 100.493 136.663C100.77 136.976 101.111 137.225 101.494 137.393C101.877 137.561 102.292 137.644 102.709 137.635C103.356 137.588 103.98 137.376 104.521 137.017C105.062 136.659 105.502 136.168 105.798 135.591C106.679 133.355 104.507 130.549 101.99 131.329ZM104.633 135.286L104.637 135.404C104.464 135.865 104.196 135.914 102.711 136.218L102.476 136.267C102.389 136.298 102.295 136.311 102.202 136.305C102.109 136.299 102.019 136.274 101.936 136.232C101.868 136.19 101.811 136.133 101.77 136.065C101.728 135.998 101.703 135.921 101.697 135.842C101.694 135.758 101.687 135.513 101.611 135.203C101.5 134.649 101.43 134.087 101.403 133.522C101.366 133.416 101.363 133.301 101.394 133.193C101.421 133.126 101.463 133.066 101.517 133.017C101.572 132.969 101.636 132.934 101.706 132.915C102.328 132.732 102.961 132.593 103.601 132.498C103.713 132.493 103.823 132.524 103.916 132.587C104.009 132.65 104.08 132.74 104.117 132.846C104.3 133.634 104.406 134.129 104.483 134.455C104.581 134.721 104.632 135.003 104.633 135.286Z" fill="white"/>
</svg>
