<svg width="24" height="24" viewBox="0 0 24 24" fill="none" xmlns="http://www.w3.org/2000/svg">
<path d="M2.2933 8.85958C2.73664 7.49071 3.46458 6.23113 4.4293 5.16358C4.5091 5.0754 4.6133 5.01292 4.72868 4.98407C4.84405 4.95523 4.9654 4.96132 5.0773 5.00158L7.3789 5.82478C7.54276 5.88329 7.71737 5.90547 7.89064 5.88978C8.06392 5.87409 8.23171 5.82092 8.38239 5.73393C8.53307 5.64695 8.66303 5.52824 8.76327 5.38604C8.86351 5.24383 8.93163 5.08153 8.9629 4.91038L9.4021 2.50318C9.42332 2.386 9.47892 2.27778 9.56183 2.1923C9.64475 2.10682 9.75122 2.04795 9.8677 2.02318C11.2734 1.72266 12.7268 1.72266 14.1325 2.02318C14.249 2.04795 14.3555 2.10682 14.4384 2.1923C14.5213 2.27778 14.5769 2.386 14.5981 2.50318L15.0373 4.91038C15.0686 5.08153 15.1367 5.24383 15.2369 5.38604C15.3372 5.52824 15.4671 5.64695 15.6178 5.73393C15.7685 5.82092 15.9363 5.87409 16.1096 5.88978C16.2828 5.90547 16.4575 5.88329 16.6213 5.82478L18.9241 5.00158C19.0361 4.96146 19.1575 4.95556 19.2729 4.98462C19.3883 5.01368 19.4924 5.07639 19.5721 5.16478C20.5367 6.23198 21.2646 7.49114 21.7081 8.85958C21.7445 8.97274 21.7466 9.09418 21.7139 9.20848C21.6812 9.32278 21.6153 9.4248 21.5245 9.50158L19.6585 11.0856C19.5259 11.1982 19.4195 11.3384 19.3464 11.4962C19.2734 11.6541 19.2356 11.826 19.2356 12C19.2356 12.1739 19.2734 12.3458 19.3464 12.5037C19.4195 12.6616 19.5259 12.8017 19.6585 12.9144L21.5245 14.4984C21.6151 14.5753 21.6807 14.6774 21.7132 14.7917C21.7457 14.906 21.7435 15.0273 21.7069 15.1404C21.2636 16.5092 20.5356 17.7688 19.5709 18.8364C19.4911 18.9246 19.3869 18.987 19.2715 19.0159C19.1562 19.0447 19.0348 19.0386 18.9229 18.9984L16.6213 18.1752C16.4575 18.1167 16.2828 18.0945 16.1096 18.1102C15.9363 18.1259 15.7685 18.179 15.6178 18.266C15.4671 18.353 15.3372 18.4717 15.2369 18.6139C15.1367 18.7561 15.0686 18.9184 15.0373 19.0896L14.5981 21.498C14.5767 21.6149 14.521 21.7229 14.4381 21.8081C14.3552 21.8934 14.2488 21.9521 14.1325 21.9768C12.7268 22.2773 11.2734 22.2773 9.8677 21.9768C9.75122 21.952 9.64475 21.8931 9.56183 21.8077C9.47892 21.7222 9.42332 21.614 9.4021 21.4968L8.9629 19.0896C8.93163 18.9184 8.86351 18.7561 8.76327 18.6139C8.66303 18.4717 8.53307 18.353 8.38239 18.266C8.23171 18.179 8.06392 18.1259 7.89064 18.1102C7.71737 18.0945 7.54276 18.1167 7.3789 18.1752L5.0773 18.9984C4.96528 19.0385 4.84387 19.0444 4.72848 19.0153C4.6131 18.9863 4.50896 18.9236 4.4293 18.8352C3.46473 17.768 2.7368 16.5088 2.2933 15.1404C2.25672 15.0273 2.25453 14.906 2.287 14.7917C2.31947 14.6774 2.38515 14.5753 2.4757 14.4984L4.3417 12.9144C4.47426 12.8017 4.58074 12.6616 4.65376 12.5037C4.72679 12.3458 4.76461 12.1739 4.76461 12C4.76461 11.826 4.72679 11.6541 4.65376 11.4962C4.58074 11.3384 4.47426 11.1982 4.3417 11.0856L2.4757 9.50158C2.38515 9.42465 2.31947 9.32257 2.287 9.20828C2.25453 9.09399 2.25672 8.97263 2.2933 8.85958ZM3.5653 8.85238L5.1181 10.17C5.38363 10.3953 5.59695 10.6757 5.74325 10.9917C5.88955 11.3077 5.96533 11.6517 5.96533 12C5.96533 12.3482 5.88955 12.6923 5.74325 13.0083C5.59695 13.3243 5.38363 13.6047 5.1181 13.83L3.5665 15.1476C3.9169 16.086 4.4221 16.9596 5.0593 17.73L6.9745 17.046C7.0985 17.002 7.2245 16.968 7.3525 16.944C7.97868 16.8299 8.62451 16.9693 9.14796 17.3313C9.6714 17.6934 10.0296 18.2486 10.1437 18.8748L10.5085 20.8776C11.4962 21.0413 12.504 21.0413 13.4917 20.8776L13.8565 18.8736C13.9186 18.5309 14.0547 18.2059 14.2551 17.9212C14.4556 17.6364 14.7157 17.3988 15.0173 17.2247C15.3189 17.0507 15.6548 16.9444 16.0017 16.9134C16.3485 16.8823 16.698 16.9271 17.0257 17.0448L18.9409 17.73C19.5791 16.9583 20.084 16.0855 20.4349 15.1476L18.8821 13.83C18.6162 13.6049 18.4026 13.3246 18.256 13.0086C18.1095 12.6925 18.0336 12.3483 18.0336 12C18.0336 11.6516 18.1095 11.3074 18.256 10.9914C18.4026 10.6754 18.6162 10.3951 18.8821 10.17L20.4349 8.85238C20.084 7.91446 19.5791 7.04167 18.9409 6.26998L17.0257 6.95398C16.698 7.071 16.3488 7.11536 16.0022 7.08398C15.6557 7.05261 15.3201 6.94626 15.0187 6.77229C14.7174 6.59832 14.4574 6.36091 14.257 6.0765C14.0565 5.79208 13.9203 5.46748 13.8577 5.12518L13.4917 3.12238C12.504 2.95864 11.4962 2.95864 10.5085 3.12238L10.1437 5.12518C10.0813 5.46759 9.94518 5.79232 9.74476 6.07687C9.54435 6.36143 9.28444 6.59898 8.98306 6.77307C8.68168 6.94717 8.34605 7.05362 7.99943 7.08507C7.6528 7.11652 7.30349 7.07219 6.9757 6.95518L5.0593 6.26998C4.42153 7.04175 3.9158 7.91454 3.5653 8.85238ZM9.0025 12C9.0025 11.2043 9.31857 10.4413 9.88118 9.87866C10.4438 9.31605 11.2069 8.99998 12.0025 8.99998C12.7982 8.99998 13.5612 9.31605 14.1238 9.87866C14.6864 10.4413 15.0025 11.2043 15.0025 12C15.0025 12.7956 14.6864 13.5587 14.1238 14.1213C13.5612 14.6839 12.7982 15 12.0025 15C11.2069 15 10.4438 14.6839 9.88118 14.1213C9.31857 13.5587 9.0025 12.7956 9.0025 12ZM10.2025 12C10.2025 12.4774 10.3921 12.9352 10.7297 13.2728C11.0673 13.6103 11.5251 13.8 12.0025 13.8C12.4799 13.8 12.9377 13.6103 13.2753 13.2728C13.6129 12.9352 13.8025 12.4774 13.8025 12C13.8025 11.5226 13.6129 11.0648 13.2753 10.7272C12.9377 10.3896 12.4799 10.2 12.0025 10.2C11.5251 10.2 11.0673 10.3896 10.7297 10.7272C10.3921 11.0648 10.2025 11.5226 10.2025 12Z" fill="white"/>
</svg>
